<svg width="384" height="97" viewBox="0 0 384 97" fill="none" xmlns="http://www.w3.org/2000/svg">
<path d="M35.7882 0.936035C34.4118 0.936035 33.2894 2.0432 33.2894 3.40882V27.571C33.2894 28.9331 34.4082 30.0437 35.7882 30.0437H47.7847C52.6835 30.0437 57.3494 31.9368 60.9247 35.37C64.5212 38.8278 66.5294 43.3927 66.5859 48.23C66.6424 53.186 64.7329 57.8522 61.2141 61.3728C57.6953 64.8934 53.0012 66.8318 47.9965 66.8318H47.7847C42.8965 66.7759 38.2835 64.7886 34.7894 61.2296C31.32 57.695 29.4071 53.0743 29.4071 48.2265V36.355C29.4071 34.9928 28.2882 33.8822 26.9082 33.8822H2.49882C1.12235 33.8822 0 34.9893 0 36.355V60.5171C0 61.8792 1.11882 62.9899 2.49882 62.9899H21.7659C24.3565 62.9899 26.0259 63.0248 27.4024 63.2099C29.2306 63.4544 30.4553 63.9713 31.38 64.8829C32.3047 65.7945 32.8235 67.0099 33.0706 68.8191C33.2576 70.1847 33.2929 71.8333 33.2929 74.4004V93.4632C33.2929 94.8254 34.4118 95.936 35.7918 95.936H48C53.4812 95.936 58.8635 95.0245 63.9988 93.2292C83.1388 86.5338 96 68.5327 96 48.436C96 28.3393 83.1388 10.3382 63.9988 3.64283C58.8635 1.84761 53.4812 0.936035 48 0.936035H35.7918H35.7882Z" fill="white"/>
<path d="M369.596 31.9402C374.093 31.9402 377.517 33.3474 379.867 36.1618C382.246 38.9471 383.436 42.7625 383.436 47.6079V78.2903H372.642V50.1321C372.642 44.2422 370.35 41.2973 365.766 41.2973C363.126 41.2973 360.935 42.5159 359.194 44.9531C357.453 47.3902 356.583 50.5383 356.583 54.3972V78.2903H345.833V50.1321C345.833 47.2597 345.253 45.0691 344.092 43.5604C342.932 42.0516 341.22 41.2973 338.957 41.2973C336.317 41.2973 334.126 42.5159 332.385 44.9531C330.644 47.3902 329.774 50.5093 329.774 54.3101V78.2903H318.894V32.8541H329.6V41.1232H329.861C330.673 38.599 332.197 36.4374 334.431 34.6385C336.694 32.8396 339.508 31.9402 342.874 31.9402C346.297 31.9402 349.083 32.7671 351.23 34.4209C353.406 36.0747 354.9 38.4249 355.713 41.4714H355.974C356.902 38.744 358.527 36.4809 360.848 34.682C363.169 32.8541 366.085 31.9402 369.596 31.9402Z" fill="white"/>
<path d="M273.148 63.6686V32.8556H283.942V61.1879C283.942 66.9907 286.306 69.8921 291.036 69.8921C293.821 69.8921 296.128 68.6445 297.956 66.1493C299.784 63.6541 300.697 60.448 300.697 56.5311V32.8556H311.534V78.2917H300.872V69.8051H300.61C299.566 72.5324 297.985 74.781 295.867 76.5509C293.749 78.2917 291.079 79.1622 287.859 79.1622C278.052 79.1622 273.148 73.9976 273.148 63.6686Z" fill="white"/>
<path d="M244.695 65.1912V41.7333H238.732V33.2902H240.952C242.751 33.2902 243.94 32.8985 244.521 32.1151C245.13 31.3317 245.434 29.7359 245.434 27.3277V18.58H255.488V32.8549H266.803V41.7333H255.488V63.3198C255.488 65.844 255.923 67.6139 256.794 68.6294C257.664 69.6159 259.1 70.1091 261.102 70.1091C263.046 70.1091 264.947 69.6594 266.803 68.76V77.6818C264.25 78.7553 261.436 79.2921 258.36 79.2921C253.515 79.2921 250.019 78.2041 247.872 76.028C245.754 73.8229 244.695 70.2107 244.695 65.1912Z" fill="white"/>
<path d="M189.542 55.9204C189.542 48.5508 191.341 42.719 194.939 38.4249C198.536 34.1018 203.309 31.9402 209.257 31.9402C212.71 31.9402 215.495 32.7091 217.613 34.2468C219.731 35.7556 221.153 37.4819 221.878 39.4259H222.183V32.8541H232.759V78.2903H222.183V70.1083H221.878C221.269 72.5455 219.789 74.6636 217.439 76.4624C215.089 78.2613 212.028 79.1608 208.256 79.1608C205.616 79.1608 203.164 78.653 200.901 77.6375C198.638 76.622 196.651 75.1568 194.939 73.2419C193.256 71.3269 191.936 68.8897 190.978 65.9303C190.021 62.9418 189.542 59.6052 189.542 55.9204ZM221.965 56.1815V53.962C221.965 49.8419 220.979 46.5924 219.006 44.2132C217.062 41.805 214.61 40.6009 211.651 40.6009C208.256 40.6009 205.543 41.9501 203.512 44.6484C201.51 47.3467 200.509 50.988 200.509 55.5722C200.509 60.2725 201.496 63.9283 203.469 66.5396C205.442 69.1509 208.024 70.4565 211.216 70.4565C214.349 70.4565 216.917 69.1944 218.919 66.6702C220.95 64.1459 221.965 60.6497 221.965 56.1815Z" fill="white"/>
<path d="M134 18.58H156.022C159.678 18.58 163.043 19.0732 166.119 20.0597C169.223 21.0462 171.892 22.4243 174.127 24.1942C176.39 25.9641 178.305 28.0676 179.871 30.5048C181.467 32.942 182.657 35.6258 183.44 38.5562C184.224 41.4867 184.615 44.6057 184.615 47.9133C184.615 52.2074 183.962 56.1968 182.657 59.8816C181.38 63.5374 179.538 66.7435 177.13 69.4998C174.721 72.2272 171.66 74.3742 167.947 75.941C164.233 77.5077 160.069 78.2911 155.456 78.2911H134V18.58ZM154.847 68.5859C157.922 68.5859 160.635 68.0781 162.985 67.0626C165.364 66.0471 167.294 64.6255 168.773 62.7976C170.253 60.9407 171.356 58.7791 172.081 56.3129C172.835 53.8467 173.213 51.1048 173.213 48.0874C173.213 45.244 172.85 42.6472 172.125 40.2971C171.399 37.9179 170.311 35.8289 168.861 34.03C167.41 32.2021 165.495 30.7949 163.116 29.8085C160.737 28.793 157.98 28.2852 154.847 28.2852H145.141V68.5859H154.847Z" fill="white"/>
</svg>
