<svg width="98" height="29" viewBox="0 0 98 29" fill="none" xmlns="http://www.w3.org/2000/svg">
<path d="M10.8215 0.747068C10.4148 0.747068 10.0832 1.06763 10.0832 1.46303V8.45882C10.0832 8.85321 10.4138 9.17478 10.8215 9.17478H14.3662C15.8136 9.17478 17.1923 9.72288 18.2487 10.7169C19.3113 11.7181 19.9047 13.0398 19.9214 14.4403C19.9381 15.8753 19.3739 17.2263 18.3342 18.2456C17.2945 19.265 15.9075 19.8262 14.4287 19.8262H14.3662C12.9218 19.81 11.5588 19.2346 10.5264 18.2042C9.50129 17.1808 8.93607 15.8429 8.93607 14.4393V11.0021C8.93607 10.6077 8.60548 10.2861 8.19773 10.2861H0.985406C0.578695 10.2861 0.24707 10.6067 0.24707 11.0021V17.9979C0.24707 18.3923 0.577653 18.7139 0.985406 18.7139H6.6783C7.44375 18.7139 7.93702 18.724 8.34373 18.7776C8.88392 18.8484 9.24579 18.998 9.51902 19.262C9.79224 19.5259 9.94554 19.8778 10.0185 20.4016C10.0738 20.797 10.0842 21.2743 10.0842 22.0176V27.537C10.0842 27.9314 10.4148 28.2529 10.8226 28.2529H14.4298C16.0493 28.2529 17.6397 27.989 19.157 27.4692C24.8124 25.5307 28.6125 20.3187 28.6125 14.5C28.6125 8.6813 24.8124 3.46934 19.157 1.53078C17.6397 1.011 16.0493 0.747068 14.4298 0.747068H10.8226H10.8215Z" fill="#F27A67"/>
<path d="M94.7704 10.5332C95.8199 10.5332 96.6189 10.8616 97.1674 11.5184C97.7227 12.1685 98.0003 13.0589 98.0003 14.1897V21.3504H95.4814V14.7788C95.4814 13.4042 94.9464 12.717 93.8766 12.717C93.2604 12.717 92.7491 13.0013 92.3429 13.5701C91.9366 14.1389 91.7334 14.8736 91.7334 15.7742V21.3504H89.2247V14.7788C89.2247 14.1085 89.0892 13.5972 88.8184 13.2451C88.5475 12.893 88.148 12.717 87.6199 12.717C87.0037 12.717 86.4924 13.0013 86.0862 13.5701C85.6799 14.1389 85.4767 14.8668 85.4767 15.7539V21.3504H82.9375V10.7465H85.4361V12.6763H85.4971C85.6867 12.0872 86.0421 11.5828 86.5635 11.1629C87.0917 10.7431 87.7485 10.5332 88.534 10.5332C89.333 10.5332 89.9831 10.7262 90.4841 11.1122C90.992 11.4981 91.3407 12.0466 91.5303 12.7576H91.5912C91.8079 12.1211 92.1871 11.5929 92.7288 11.1731C93.2705 10.7465 93.951 10.5332 94.7704 10.5332Z" fill="white"/>
<path d="M72.2612 17.9372V10.7461H74.7802V17.3583C74.7802 18.7125 75.332 19.3897 76.4357 19.3897C77.0858 19.3897 77.6241 19.0985 78.0507 18.5162C78.4773 17.9338 78.6906 17.1856 78.6906 16.2715V10.7461H81.2197V21.35H78.7312V19.3694H78.6703C78.4265 20.0059 78.0575 20.5306 77.5632 20.9437C77.0689 21.35 76.4459 21.5531 75.6943 21.5531C73.4056 21.5531 72.2612 20.3478 72.2612 17.9372Z" fill="white"/>
<path d="M65.6208 18.2931V12.8185H64.2292V10.8481H64.7473C65.1671 10.8481 65.4447 10.7567 65.5801 10.5739C65.7223 10.391 65.7934 10.0186 65.7934 9.45659V7.41504H68.1397V10.7465H70.7805V12.8185H68.1397V17.8564C68.1397 18.4455 68.2412 18.8586 68.4444 19.0955C68.6475 19.3258 68.9827 19.4409 69.4499 19.4409C69.9036 19.4409 70.3471 19.3359 70.7805 19.126V21.2082C70.1846 21.4587 69.5278 21.584 68.81 21.584C67.6792 21.584 66.8633 21.3301 66.3622 20.8222C65.8679 20.3076 65.6208 19.4646 65.6208 18.2931Z" fill="white"/>
<path d="M52.7493 16.1297C52.7493 14.4098 53.1691 13.0487 54.0087 12.0466C54.8484 11.0377 55.9623 10.5332 57.3504 10.5332C58.1562 10.5332 58.8062 10.7126 59.3005 11.0715C59.7948 11.4236 60.1266 11.8265 60.2959 12.2802H60.367V10.7465H62.8351V21.3504H60.367V19.4409H60.2959C60.1537 20.0097 59.8084 20.504 59.2599 20.9238C58.7114 21.3436 57.997 21.5535 57.1168 21.5535C56.5006 21.5535 55.9284 21.435 55.4002 21.198C54.8721 20.961 54.4082 20.6191 54.0087 20.1722C53.616 19.7253 53.3079 19.1565 53.0844 18.4658C52.861 17.7683 52.7493 16.9896 52.7493 16.1297ZM60.3162 16.1906V15.6726C60.3162 14.7111 60.086 13.9527 59.6255 13.3975C59.1719 12.8354 58.5997 12.5544 57.909 12.5544C57.1168 12.5544 56.4836 12.8693 56.0097 13.499C55.5424 14.1288 55.3088 14.9786 55.3088 16.0484C55.3088 17.1454 55.539 17.9986 55.9995 18.608C56.4599 19.2174 57.0626 19.5221 57.8074 19.5221C58.5387 19.5221 59.138 19.2276 59.6052 18.6385C60.0792 18.0494 60.3162 17.2334 60.3162 16.1906Z" fill="white"/>
<path d="M39.7869 7.41504H44.9263C45.7795 7.41504 46.5649 7.53015 47.2827 7.76038C48.0072 7.9906 48.6302 8.31224 49.1516 8.72529C49.6797 9.13834 50.1267 9.62926 50.4923 10.198C50.8647 10.7668 51.1424 11.3932 51.3252 12.0771C51.508 12.761 51.5994 13.4889 51.5994 14.2608C51.5994 15.263 51.4471 16.194 51.1424 17.054C50.8444 17.9072 50.4144 18.6554 49.8524 19.2987C49.2904 19.9352 48.576 20.4363 47.7093 20.8019C46.8426 21.1676 45.8709 21.3504 44.7942 21.3504H39.7869V7.41504ZM44.6521 19.0854C45.3698 19.0854 46.0029 18.9669 46.5514 18.7299C47.1067 18.4929 47.5569 18.1611 47.9023 17.7345C48.2476 17.3012 48.5049 16.7967 48.6742 16.2211C48.8503 15.6456 48.9383 15.0057 48.9383 14.3015C48.9383 13.6379 48.8536 13.0318 48.6844 12.4834C48.5151 11.9281 48.2612 11.4406 47.9226 11.0208C47.584 10.5942 47.1371 10.2658 46.5819 10.0355C46.0266 9.79854 45.3834 9.68004 44.6521 9.68004H42.387V19.0854H44.6521Z" fill="white"/>
</svg>
