<svg width="13" height="13" viewBox="0 0 13 13" fill="none" xmlns="http://www.w3.org/2000/svg">
<path d="M6.5 0C5.64641 0 4.80117 0.172302 4.01256 0.507067C3.22394 0.841832 2.50739 1.33251 1.90381 1.95107C0.684819 3.20032 0 4.89467 0 6.66138C0 9.6057 1.8655 12.1037 4.446 12.9897C4.771 13.043 4.875 12.8365 4.875 12.6566V11.5308C3.0745 11.9305 2.691 10.6382 2.691 10.6382C2.392 9.8655 1.9695 9.65899 1.9695 9.65899C1.378 9.24599 2.015 9.25931 2.015 9.25931C2.665 9.30594 3.0095 9.94543 3.0095 9.94543C3.575 10.958 4.5305 10.6582 4.901 10.4983C4.9595 10.0653 5.1285 9.77224 5.3105 9.6057C3.8675 9.43917 2.353 8.86629 2.353 6.32831C2.353 5.58889 2.6 4.99603 3.0225 4.52307C2.9575 4.35654 2.73 3.66376 3.0875 2.76447C3.0875 2.76447 3.6335 2.58461 4.875 3.44393C5.3885 3.29738 5.9475 3.22411 6.5 3.22411C7.0525 3.22411 7.6115 3.29738 8.125 3.44393C9.3665 2.58461 9.9125 2.76447 9.9125 2.76447C10.27 3.66376 10.0425 4.35654 9.9775 4.52307C10.4 4.99603 10.647 5.58889 10.647 6.32831C10.647 8.87295 9.126 9.43251 7.6765 9.59904C7.9105 9.80554 8.125 10.2119 8.125 10.8314V12.6566C8.125 12.8365 8.229 13.0496 8.5605 12.9897C11.141 12.0971 13 9.6057 13 6.66138C13 5.78659 12.8319 4.92037 12.5052 4.11218C12.1786 3.30398 11.6998 2.56964 11.0962 1.95107C10.4926 1.33251 9.77606 0.841832 8.98744 0.507067C8.19883 0.172302 7.35359 0 6.5 0Z" fill="white"/>
</svg>
