<svg width="16" height="16" viewBox="0 0 16 16" fill="none" xmlns="http://www.w3.org/2000/svg">
<g id="adjustments-horizontal" clip-path="url(#clip0_569_8901)">
<g id="Vector">
<path d="M0.8 4.03598H1.9392C2.10539 4.55355 2.4334 5.00529 2.87578 5.32587C3.31816 5.64645 3.85198 5.81924 4.4 5.81924C4.94802 5.81924 5.48184 5.64645 5.92422 5.32587C6.3666 5.00529 6.69461 4.55355 6.8608 4.03598H15.2C15.4122 4.03598 15.6157 3.95245 15.7657 3.80376C15.9157 3.65507 16 3.4534 16 3.24312C16 3.03283 15.9157 2.83117 15.7657 2.68247C15.6157 2.53378 15.4122 2.45025 15.2 2.45025H6.8608C6.69461 1.93268 6.3666 1.48094 5.92422 1.16036C5.48184 0.83978 4.94802 0.666992 4.4 0.666992C3.85198 0.666992 3.31816 0.83978 2.87578 1.16036C2.4334 1.48094 2.10539 1.93268 1.9392 2.45025H0.8C0.587827 2.45025 0.384344 2.53378 0.234315 2.68247C0.0842854 2.83117 0 3.03283 0 3.24312C0 3.4534 0.0842854 3.65507 0.234315 3.80376C0.384344 3.95245 0.587827 4.03598 0.8 4.03598Z" fill="#BBB5C6"/>
<path d="M15.2 7.20746H14.0608C13.8946 6.68989 13.5666 6.23815 13.1242 5.91757C12.6818 5.59699 12.148 5.4242 11.6 5.4242C11.052 5.4242 10.5182 5.59699 10.0758 5.91757C9.6334 6.23815 9.30539 6.68989 9.1392 7.20746H0.8C0.587827 7.20746 0.384344 7.29099 0.234315 7.43968C0.0842854 7.58837 0 7.79004 0 8.00033C0 8.21061 0.0842854 8.41228 0.234315 8.56097C0.384344 8.70966 0.587827 8.79319 0.8 8.79319H9.1392C9.30539 9.31076 9.6334 9.7625 10.0758 10.0831C10.5182 10.4037 11.052 10.5764 11.6 10.5764C12.148 10.5764 12.6818 10.4037 13.1242 10.0831C13.5666 9.7625 13.8946 9.31076 14.0608 8.79319H15.2C15.4122 8.79319 15.6157 8.70966 15.7657 8.56097C15.9157 8.41228 16 8.21061 16 8.00033C16 7.79004 15.9157 7.58837 15.7657 7.43968C15.6157 7.29099 15.4122 7.20746 15.2 7.20746Z" fill="#BBB5C6"/>
<path d="M15.2 11.9647H6.8608C6.69461 11.4471 6.3666 10.9954 5.92422 10.6748C5.48184 10.3542 4.94802 10.1814 4.4 10.1814C3.85198 10.1814 3.31816 10.3542 2.87578 10.6748C2.4334 10.9954 2.10539 11.4471 1.9392 11.9647H0.8C0.587827 11.9647 0.384344 12.0482 0.234315 12.1969C0.0842854 12.3456 0 12.5473 0 12.7575C0 12.9678 0.0842854 13.1695 0.234315 13.3182C0.384344 13.4669 0.587827 13.5504 0.8 13.5504H1.9392C2.10539 14.068 2.4334 14.5197 2.87578 14.8403C3.31816 15.1609 3.85198 15.3337 4.4 15.3337C4.94802 15.3337 5.48184 15.1609 5.92422 14.8403C6.3666 14.5197 6.69461 14.068 6.8608 13.5504H15.2C15.4122 13.5504 15.6157 13.4669 15.7657 13.3182C15.9157 13.1695 16 12.9678 16 12.7575C16 12.5473 15.9157 12.3456 15.7657 12.1969C15.6157 12.0482 15.4122 11.9647 15.2 11.9647Z" fill="#BBB5C6"/>
</g>
</g>
<defs>
<clipPath id="clip0_569_8901">
<rect width="16" height="16" fill="white"/>
</clipPath>
</defs>
</svg>
