<svg width="20" height="20" viewBox="0 0 20 20" fill="none" xmlns="http://www.w3.org/2000/svg">
<g id="arrow-left-outline">
<path id="Vector" d="M18.5715 8.51723H4.87799L8.15352 5.07842C8.28996 4.94007 8.39878 4.77459 8.47365 4.59162C8.54852 4.40865 8.58792 4.21186 8.58957 4.01273C8.59122 3.8136 8.55508 3.61612 8.48325 3.43181C8.41142 3.24751 8.30535 3.08006 8.17123 2.93925C8.0371 2.79844 7.87761 2.68708 7.70205 2.61168C7.5265 2.53627 7.3384 2.49833 7.14872 2.50006C6.95905 2.50179 6.7716 2.54316 6.59732 2.62176C6.42304 2.70035 6.26541 2.8146 6.13364 2.95784L0.419673 8.95664C0.286643 9.09595 0.181098 9.26144 0.109083 9.44364C0.0370689 9.62584 0 9.82117 0 10.0184C0 10.2157 0.0370689 10.411 0.109083 10.5932C0.181098 10.7754 0.286643 10.9409 0.419673 11.0802L6.13364 17.079C6.40305 17.3522 6.76389 17.5034 7.13844 17.4999C7.51298 17.4965 7.87127 17.3388 8.13612 17.0607C8.40098 16.7827 8.55121 16.4065 8.55446 16.0133C8.55772 15.6201 8.41373 15.2413 8.15352 14.9584L4.87799 11.5166H18.5715C18.9504 11.5166 19.3137 11.3586 19.5816 11.0774C19.8495 10.7961 20 10.4147 20 10.0169C20 9.61918 19.8495 9.23773 19.5816 8.95648C19.3137 8.67523 18.9504 8.51723 18.5715 8.51723Z" fill="#4D474D"/>
</g>
</svg>
