<svg width="20" height="20" viewBox="0 0 20 20" fill="none" xmlns="http://www.w3.org/2000/svg">
<g id="arrow-right-outline">
<path id="Vector" d="M19.8913 10.5723C19.9994 10.2988 20.0277 9.99791 19.9725 9.70761C19.9173 9.41732 19.7812 9.15069 19.5812 8.94146L13.8666 2.95676C13.7348 2.81386 13.5772 2.69988 13.4029 2.62147C13.2286 2.54306 13.0411 2.50178 12.8514 2.50006C12.6617 2.49833 12.4736 2.53619 12.298 2.61141C12.1224 2.68664 11.9629 2.79774 11.8288 2.93822C11.6946 3.0787 11.5885 3.24575 11.5167 3.42962C11.4449 3.6135 11.4087 3.81051 11.4104 4.00917C11.412 4.20784 11.4514 4.40416 11.5263 4.5867C11.6012 4.76924 11.71 4.93434 11.8465 5.07235L15.1238 8.50457H1.42866C1.04976 8.50457 0.686372 8.66221 0.418446 8.94279C0.15052 9.22338 0 9.60394 0 10.0007C0 10.3976 0.15052 10.7781 0.418446 11.0587C0.686372 11.3393 1.04976 11.4969 1.42866 11.4969H15.1238L11.8479 14.9276C11.7114 15.0657 11.6026 15.2308 11.5277 15.4133C11.4529 15.5958 11.4134 15.7922 11.4118 15.9908C11.4101 16.1895 11.4463 16.3865 11.5181 16.5704C11.59 16.7542 11.696 16.9213 11.8302 17.0618C11.9643 17.2023 12.1238 17.3134 12.2994 17.3886C12.475 17.4638 12.6631 17.5017 12.8528 17.4999C13.0425 17.4982 13.23 17.4569 13.4043 17.3785C13.5786 17.3001 13.7362 17.1861 13.868 17.0432L19.5827 11.0585C19.715 10.9193 19.8199 10.754 19.8913 10.5723Z" fill="#9C94B0"/>
</g>
</svg>
