<svg width="20" height="21" viewBox="0 0 20 21" fill="none" xmlns="http://www.w3.org/2000/svg">
<g id="bell" clip-path="url(#clip0_569_8951)">
<g id="Vector">
<path d="M16.1108 11.5862V9.69145C16.1116 8.41087 15.6239 7.1675 14.7265 6.16237C13.8291 5.15725 12.5745 4.44915 11.1656 4.15258C11.1763 4.11584 11.1846 4.07859 11.1906 4.041V1.55262C11.1906 1.27345 11.0651 1.00571 10.8419 0.808304C10.6186 0.610901 10.3158 0.5 10.0001 0.5C9.68435 0.5 9.38155 0.610901 9.15829 0.808304C8.93503 1.00571 8.80961 1.27345 8.80961 1.55262V4.041C8.81553 4.07859 8.82387 4.11584 8.83461 4.15258C7.42569 4.44915 6.1711 5.15725 5.2737 6.16237C4.3763 7.1675 3.88857 8.41087 3.88937 9.69145V11.5862C3.88937 14.0977 1.66675 14.7251 1.66675 15.9808C1.66675 16.605 1.66675 17.2366 2.30722 17.2366H17.6929C18.3334 17.2366 18.3334 16.605 18.3334 15.9808C18.3334 14.7251 16.1108 14.0977 16.1108 11.5862Z" fill="#9C94B0"/>
<path d="M6.21794 18.2892C6.53375 18.945 7.06066 19.5043 7.73313 19.8973C8.40561 20.2904 9.19395 20.5 10.0001 20.5C10.8062 20.5 11.5946 20.2904 12.267 19.8973C12.9395 19.5043 13.4664 18.945 13.7822 18.2892H6.21794Z" fill="#9C94B0"/>
</g>
</g>
<defs>
<clipPath id="clip0_569_8951">
<rect width="20" height="20" fill="white" transform="translate(0 0.5)"/>
</clipPath>
</defs>
</svg>
