<svg width="16" height="16" viewBox="0 0 16 16" fill="none" xmlns="http://www.w3.org/2000/svg">
<g id="book">
<path id="Vector" d="M14.6666 11.2V1.6C14.6666 1.17565 14.491 0.768687 14.1784 0.468629C13.8659 0.168571 13.4419 0 12.9999 0H2.99992C2.55789 0 2.13397 0.168571 1.82141 0.468629C1.50885 0.768687 1.33325 1.17565 1.33325 1.6V13.6C1.33325 14.2365 1.59664 14.847 2.06549 15.2971C2.53433 15.7471 3.17021 16 3.83325 16H13.8333C14.0543 16 14.2662 15.9157 14.4225 15.7657C14.5788 15.6157 14.6666 15.4122 14.6666 15.2C14.6666 14.9878 14.5788 14.7843 14.4225 14.6343C14.2662 14.4843 14.0543 14.4 13.8333 14.4H12.9999V12.8C13.4419 12.8 13.8659 12.6314 14.1784 12.3314C14.491 12.0313 14.6666 11.6243 14.6666 11.2ZM4.66659 1.6H6.33325V11.2H4.66659V1.6ZM11.3333 14.4H3.83325C3.61224 14.4 3.40028 14.3157 3.244 14.1657C3.08772 14.0157 2.99992 13.8122 2.99992 13.6C2.99992 13.3878 3.08772 13.1843 3.244 13.0343C3.40028 12.8843 3.61224 12.8 3.83325 12.8H11.3333V14.4Z" fill="#9C94B0"/>
</g>
</svg>
