<svg width="16" height="16" viewBox="0 0 16 16" fill="none" xmlns="http://www.w3.org/2000/svg">
<g id="building" clip-path="url(#clip0_359_4742)">
<path id="Vector" d="M15.1111 14.2222H14.2222V1.77778C14.458 1.77778 14.6841 1.68413 14.8508 1.51743C15.0175 1.35073 15.1111 1.12464 15.1111 0.888889C15.1111 0.653141 15.0175 0.427048 14.8508 0.260349C14.6841 0.0936505 14.458 0 14.2222 0H1.77778C1.54203 0 1.31594 0.0936505 1.14924 0.260349C0.98254 0.427048 0.888889 0.653141 0.888889 0.888889C0.888889 1.12464 0.98254 1.35073 1.14924 1.51743C1.31594 1.68413 1.54203 1.77778 1.77778 1.77778V14.2222H0.888889C0.653141 14.2222 0.427048 14.3159 0.260349 14.4826C0.0936505 14.6493 0 14.8754 0 15.1111C0 15.3469 0.0936505 15.573 0.260349 15.7397C0.427048 15.9064 0.653141 16 0.888889 16H15.1111C15.3469 16 15.573 15.9064 15.7397 15.7397C15.9064 15.573 16 15.3469 16 15.1111C16 14.8754 15.9064 14.6493 15.7397 14.4826C15.573 14.3159 15.3469 14.2222 15.1111 14.2222ZM4.44444 3.55556C4.44444 3.31981 4.53809 3.09372 4.70479 2.92702C4.87149 2.76032 5.09759 2.66667 5.33333 2.66667H6.22222C6.45797 2.66667 6.68406 2.76032 6.85076 2.92702C7.01746 3.09372 7.11111 3.31981 7.11111 3.55556V4.44444C7.11111 4.68019 7.01746 4.90628 6.85076 5.07298C6.68406 5.23968 6.45797 5.33333 6.22222 5.33333H5.33333C5.09759 5.33333 4.87149 5.23968 4.70479 5.07298C4.53809 4.90628 4.44444 4.68019 4.44444 4.44444V3.55556ZM4.44444 8V7.11111C4.44444 6.87536 4.53809 6.64927 4.70479 6.48257C4.87149 6.31587 5.09759 6.22222 5.33333 6.22222H6.22222C6.45797 6.22222 6.68406 6.31587 6.85076 6.48257C7.01746 6.64927 7.11111 6.87536 7.11111 7.11111V8C7.11111 8.23575 7.01746 8.46184 6.85076 8.62854C6.68406 8.79524 6.45797 8.88889 6.22222 8.88889H5.33333C5.09759 8.88889 4.87149 8.79524 4.70479 8.62854C4.53809 8.46184 4.44444 8.23575 4.44444 8ZM9.77778 14.2222H6.22222V11.5556C6.22222 11.3198 6.31587 11.0937 6.48257 10.927C6.64927 10.7603 6.87536 10.6667 7.11111 10.6667H8.88889C9.12464 10.6667 9.35073 10.7603 9.51743 10.927C9.68413 11.0937 9.77778 11.3198 9.77778 11.5556V14.2222ZM11.5556 8C11.5556 8.23575 11.4619 8.46184 11.2952 8.62854C11.1285 8.79524 10.9024 8.88889 10.6667 8.88889H9.77778C9.54203 8.88889 9.31594 8.79524 9.14924 8.62854C8.98254 8.46184 8.88889 8.23575 8.88889 8V7.11111C8.88889 6.87536 8.98254 6.64927 9.14924 6.48257C9.31594 6.31587 9.54203 6.22222 9.77778 6.22222H10.6667C10.9024 6.22222 11.1285 6.31587 11.2952 6.48257C11.4619 6.64927 11.5556 6.87536 11.5556 7.11111V8ZM11.5556 4.44444C11.5556 4.68019 11.4619 4.90628 11.2952 5.07298C11.1285 5.23968 10.9024 5.33333 10.6667 5.33333H9.77778C9.54203 5.33333 9.31594 5.23968 9.14924 5.07298C8.98254 4.90628 8.88889 4.68019 8.88889 4.44444V3.55556C8.88889 3.31981 8.98254 3.09372 9.14924 2.92702C9.31594 2.76032 9.54203 2.66667 9.77778 2.66667H10.6667C10.9024 2.66667 11.1285 2.76032 11.2952 2.92702C11.4619 3.09372 11.5556 3.31981 11.5556 3.55556V4.44444Z" fill="#908A90"/>
</g>
<defs>
<clipPath id="clip0_359_4742">
<rect width="16" height="16" fill="white"/>
</clipPath>
</defs>
</svg>
