<svg width="16" height="16" viewBox="0 0 16 16" fill="none" xmlns="http://www.w3.org/2000/svg">
<g id="calendar-day" clip-path="url(#clip0_359_4845)">
<g id="Vector">
<path d="M16 3.2C16 2.77565 15.8314 2.36869 15.5314 2.06863C15.2313 1.76857 14.8243 1.6 14.4 1.6H12.8V0.8C12.8 0.587827 12.7157 0.384344 12.5657 0.234315C12.4157 0.0842854 12.2122 0 12 0C11.7878 0 11.5843 0.0842854 11.4343 0.234315C11.2843 0.384344 11.2 0.587827 11.2 0.8V1.6H8.8V0.8C8.8 0.587827 8.71571 0.384344 8.56569 0.234315C8.41566 0.0842854 8.21217 0 8 0C7.78783 0 7.58434 0.0842854 7.43431 0.234315C7.28429 0.384344 7.2 0.587827 7.2 0.8V1.6H4.8V0.8C4.8 0.587827 4.71571 0.384344 4.56569 0.234315C4.41566 0.0842854 4.21217 0 4 0C3.78783 0 3.58434 0.0842854 3.43431 0.234315C3.28429 0.384344 3.2 0.587827 3.2 0.8V1.6H1.6C1.17565 1.6 0.768687 1.76857 0.468629 2.06863C0.168571 2.36869 0 2.77565 0 3.2V4.8H16V3.2Z" fill="#908A90"/>
<path d="M0 14.4C0 14.8243 0.168571 15.2313 0.468629 15.5314C0.768687 15.8314 1.17565 16 1.6 16H14.4C14.8243 16 15.2313 15.8314 15.5314 15.5314C15.8314 15.2313 16 14.8243 16 14.4V6.4H0V14.4ZM4 8H12C12.2122 8 12.4157 8.08429 12.5657 8.23431C12.7157 8.38434 12.8 8.58783 12.8 8.8C12.8 9.01217 12.7157 9.21566 12.5657 9.36569C12.4157 9.51571 12.2122 9.6 12 9.6H4C3.78783 9.6 3.58434 9.51571 3.43431 9.36569C3.28429 9.21566 3.2 9.01217 3.2 8.8C3.2 8.58783 3.28429 8.38434 3.43431 8.23431C3.58434 8.08429 3.78783 8 4 8Z" fill="#908A90"/>
</g>
</g>
<defs>
<clipPath id="clip0_359_4845">
<rect width="16" height="16" fill="white"/>
</clipPath>
</defs>
</svg>
