<svg width="12" height="12" viewBox="0 0 12 12" fill="none" xmlns="http://www.w3.org/2000/svg">
<g id="chevron-left">
<path id="Vector" d="M8.32137 12C8.0126 11.9999 7.71649 11.8736 7.49819 11.6488L2.8409 6.85472C2.62262 6.62997 2.5 6.32517 2.5 6.00736C2.5 5.68956 2.62262 5.38476 2.8409 5.16001L7.49819 0.365896C7.6056 0.251425 7.73407 0.160118 7.87613 0.0973047C8.01818 0.034491 8.17096 0.00142813 8.32556 4.52529e-05C8.48016 -0.00133763 8.63347 0.0289869 8.77657 0.0892499C8.91966 0.149513 9.04965 0.238507 9.15898 0.35104C9.2683 0.463573 9.35475 0.597391 9.4133 0.744686C9.47184 0.89198 9.5013 1.0498 9.49996 1.20894C9.49861 1.36808 9.46649 1.52535 9.40547 1.67158C9.34445 1.8178 9.25575 1.95005 9.14455 2.06061L5.31043 6.00736L9.14455 9.95411C9.30733 10.1217 9.41818 10.3353 9.46308 10.5677C9.50799 10.8002 9.48493 11.0411 9.39683 11.2601C9.30872 11.4791 9.15953 11.6662 8.9681 11.7979C8.77668 11.9296 8.55161 11.9999 8.32137 12Z" fill="#9C94B0"/>
</g>
</svg>
