<svg width="12" height="12" viewBox="0 0 12 12" fill="none" xmlns="http://www.w3.org/2000/svg">
<g id="chevron-down">
<path id="Vector" d="M6.01475 9.5C5.69651 9.49993 5.39134 9.37723 5.16635 9.15886L0.366346 4.50174C0.251734 4.39434 0.160315 4.26586 0.0974242 4.12382C0.0345334 3.98177 0.00142989 3.82899 4.53085e-05 3.6744C-0.00133927 3.51981 0.0290225 3.36649 0.0893596 3.22341C0.149697 3.08032 0.2388 2.95033 0.351472 2.84101C0.464143 2.73169 0.598125 2.64524 0.745601 2.5867C0.893077 2.52816 1.05109 2.4987 1.21043 2.50004C1.36976 2.50139 1.52723 2.53351 1.67363 2.59452C1.82004 2.65554 1.95245 2.74424 2.06315 2.85544L6.01475 6.68942L9.96635 2.85544C10.1927 2.64336 10.4958 2.52601 10.8104 2.52866C11.1251 2.53131 11.426 2.65376 11.6485 2.86962C11.871 3.08549 11.9972 3.37751 12 3.68278C12.0027 3.98805 11.8817 4.28215 11.6631 4.50174L6.86314 9.15886C6.63815 9.37723 6.33298 9.49993 6.01475 9.5Z" fill="#BBB5C6"/>
</g>
</svg>
