<svg width="12" height="8" viewBox="0 0 12 8" fill="none" xmlns="http://www.w3.org/2000/svg">
<path id="Vector" d="M6.01475 0.5C5.69651 0.500066 5.39134 0.622775 5.16635 0.841135L0.366346 5.49826C0.251734 5.60566 0.160315 5.73414 0.0974242 5.87618C0.0345334 6.01823 0.00142989 6.17101 4.53085e-05 6.3256C-0.00133927 6.48019 0.0290225 6.63351 0.0893596 6.77659C0.149697 6.91968 0.2388 7.04967 0.351472 7.15899C0.464143 7.26831 0.598125 7.35476 0.745601 7.4133C0.893077 7.47184 1.05109 7.5013 1.21043 7.49996C1.36976 7.49861 1.52723 7.46649 1.67363 7.40548C1.82004 7.34446 1.95245 7.25576 2.06315 7.14456L6.01475 3.31058L9.96635 7.14456C10.1927 7.35664 10.4958 7.47399 10.8104 7.47134C11.1251 7.46869 11.426 7.34624 11.6485 7.13038C11.871 6.91451 11.9972 6.62249 12 6.31722C12.0027 6.01195 11.8817 5.71785 11.6631 5.49826L6.86314 0.841135C6.63815 0.622775 6.33298 0.500066 6.01475 0.5Z" fill="#BBB5C6"/>
</svg>
