<svg width="16" height="16" viewBox="0 0 16 16" fill="none" xmlns="http://www.w3.org/2000/svg">
<g id="code-fork">
<path id="Vector" d="M14.6666 2.4C14.6666 1.0768 13.545 0 12.1666 0C10.7883 0 9.66665 1.0768 9.66665 2.4C9.66665 3.4416 10.3658 4.3216 11.3333 4.6528V6.4C11.3333 6.8408 10.96 7.2 10.5 7.2H5.49998C5.03998 7.2 4.66665 6.8408 4.66665 6.4V4.6528C5.63415 4.3216 6.33331 3.4416 6.33331 2.4C6.33331 1.0768 5.21165 0 3.83331 0C2.45498 0 1.33331 1.0768 1.33331 2.4C1.33331 3.4416 2.03248 4.3216 2.99998 4.6528V6.4C2.99998 7.7232 4.12165 8.8 5.49998 8.8H7.16665V11.3472C6.19915 11.6784 5.49998 12.5584 5.49998 13.6C5.49998 14.9232 6.62165 16 7.99998 16C9.37831 16 10.5 14.9232 10.5 13.6C10.5 12.5584 9.80081 11.6784 8.83331 11.3472V8.8H10.5C11.8783 8.8 13 7.7232 13 6.4V4.6528C13.9675 4.3216 14.6666 3.4416 14.6666 2.4Z" fill="#908A90"/>
</g>
</svg>
