<svg width="71" height="19" viewBox="0 0 71 19" fill="none" xmlns="http://www.w3.org/2000/svg">
<g id="Datum">
<path id="Vector" d="M67.0906 4.69904C68.3609 4.69904 69.328 5.09654 69.9919 5.89154C70.664 6.67834 71 7.7561 71 9.12482V17.792H67.9511V9.83786C67.9511 8.17409 67.3036 7.34221 66.0087 7.34221C65.2629 7.34221 64.6441 7.68644 64.1523 8.37489C63.6606 9.06335 63.4147 9.9526 63.4147 11.0427V17.792H60.3781V9.83786C60.3781 9.02647 60.2142 8.40768 59.8864 7.98149C59.5585 7.55531 59.075 7.34221 58.4357 7.34221C57.6899 7.34221 57.0711 7.68644 56.5793 8.37489C56.0876 9.06335 55.8417 9.94441 55.8417 11.0181V17.792H52.7682V4.95721H55.7925V7.29304H55.8663C56.0958 6.57999 56.526 5.9694 57.1571 5.46125C57.7964 4.95311 58.5914 4.69904 59.5421 4.69904C60.5093 4.69904 61.2961 4.93262 61.9026 5.39978C62.5172 5.86695 62.9393 6.53082 63.1688 7.39139H63.2426C63.5048 6.62097 63.9638 5.98169 64.6195 5.47355C65.2752 4.95721 66.0989 4.69904 67.0906 4.69904Z" fill="white"/>
<path id="Vector_2" d="M39.8462 13.6616V4.95758H42.8951V12.9609C42.8951 14.6 43.563 15.4196 44.899 15.4196C45.6858 15.4196 46.3374 15.0672 46.8537 14.3624C47.37 13.6575 47.6282 12.7519 47.6282 11.6454V4.95758H50.6894V17.7923H47.6774V15.3951H47.6036C47.3086 16.1655 46.8619 16.8006 46.2636 17.3006C45.6653 17.7924 44.9113 18.0382 44.0015 18.0382C41.2313 18.0382 39.8462 16.5794 39.8462 13.6616Z" fill="white"/>
<path id="Vector_3" d="M31.8086 14.0918V7.46537H30.1243V5.08037H30.7513C31.2595 5.08037 31.5955 4.96972 31.7594 4.74843C31.9315 4.52714 32.0176 4.07637 32.0176 3.39611V0.925049H34.8575V4.95743H38.0539V7.46537H34.8575V13.5631C34.8575 14.2762 34.9804 14.7761 35.2263 15.063C35.4722 15.3416 35.8779 15.481 36.4434 15.481C36.9925 15.481 37.5293 15.3539 38.0539 15.0998V17.6201C37.3326 17.9233 36.5376 18.075 35.6689 18.075C34.3002 18.075 33.3125 17.7676 32.7061 17.1529C32.1078 16.53 31.8086 15.5096 31.8086 14.0918Z" fill="white"/>
<path id="Vector_4" d="M16.2291 11.4729C16.2291 9.39119 16.7373 7.74381 17.7536 6.53082C18.7699 5.30963 20.1181 4.69904 21.7982 4.69904C22.7736 4.69904 23.5604 4.91623 24.1587 5.35061C24.757 5.7768 25.1586 6.26445 25.3635 6.81358H25.4495V4.95721H28.4369V17.792H25.4495V15.4807H25.3635C25.1913 16.1692 24.7734 16.7675 24.1095 17.2756C23.4456 17.7838 22.581 18.0379 21.5155 18.0379C20.7697 18.0379 20.0771 17.8944 19.4378 17.6076C18.7985 17.3207 18.2371 16.9068 17.7536 16.3659C17.2782 15.825 16.9053 15.1365 16.6348 14.3005C16.3644 13.4564 16.2291 12.5138 16.2291 11.4729ZM25.388 11.5467V10.9197C25.388 9.7559 25.1094 8.83796 24.5521 8.1659C24.0029 7.48564 23.3104 7.14551 22.4744 7.14551C21.5155 7.14551 20.7492 7.52662 20.1755 8.28884C19.6099 9.05106 19.3272 10.0796 19.3272 11.3746C19.3272 12.7023 19.6058 13.735 20.1632 14.4726C20.7205 15.2103 21.4499 15.5791 22.3515 15.5791C23.2366 15.5791 23.962 15.2226 24.5275 14.5095C25.1012 13.7965 25.388 12.8089 25.388 11.5467Z" fill="white"/>
<path id="Vector_5" d="M0.539677 0.925049H6.76036C7.79304 0.925049 8.74377 1.06438 9.61253 1.34304C10.4895 1.6217 11.2435 2.011 11.8746 2.51095C12.5139 3.0109 13.0548 3.60511 13.4974 4.29356C13.9482 4.98202 14.2842 5.74014 14.5055 6.56792C14.7268 7.39571 14.8374 8.27676 14.8374 9.2111C14.8374 10.4241 14.653 11.551 14.2842 12.5919C13.9236 13.6246 13.4031 14.5302 12.7229 15.3088C12.0426 16.0793 11.1779 16.6858 10.1289 17.1283C9.0798 17.5709 7.90369 17.7922 6.60054 17.7922H0.539677V0.925049ZM6.42843 15.0507C7.29719 15.0507 8.06351 14.9072 8.72737 14.6204C9.39944 14.3335 9.94446 13.9319 10.3625 13.4156C10.7804 12.8911 11.0919 12.2805 11.2968 11.5838C11.5099 10.8872 11.6164 10.1126 11.6164 9.26027C11.6164 8.45707 11.514 7.72354 11.3091 7.05968C11.1042 6.38761 10.7968 5.79751 10.387 5.28936C9.97725 4.77302 9.43632 4.37552 8.76426 4.09686C8.09219 3.81 7.31358 3.66657 6.42843 3.66657H3.6869V15.0507H6.42843Z" fill="white"/>
</g>
</svg>
