<svg width="16" height="16" viewBox="0 0 16 16" fill="none" xmlns="http://www.w3.org/2000/svg">
<g id="envelope-open" clip-path="url(#clip0_569_8841)">
<g id="Vector">
<path d="M8 10.4033L15.3328 5.25502L8.96 0.967276C8.68525 0.774049 8.35135 0.668768 8.00772 0.667014C7.66409 0.665261 7.32898 0.767128 7.052 0.95754L0.6672 5.25502L8 10.4033Z" fill="#BBB5C6"/>
<path d="M8.96 11.6016C8.68263 11.7952 8.34594 11.8997 8 11.8997C7.65406 11.8997 7.31737 11.7952 7.04 11.6016L0 6.65856V13.8358C0 14.233 0.168571 14.614 0.468629 14.8949C0.768687 15.1758 1.17565 15.3337 1.6 15.3337H14.4C14.8243 15.3337 15.2313 15.1758 15.5314 14.8949C15.8314 14.614 16 14.233 16 13.8358V6.65856L8.96 11.6016Z" fill="#BBB5C6"/>
</g>
</g>
<defs>
<clipPath id="clip0_569_8841">
<rect width="16" height="16" fill="white"/>
</clipPath>
</defs>
</svg>
