<svg width="16" height="16" viewBox="0 0 16 16" fill="none" xmlns="http://www.w3.org/2000/svg">
<g id="file-lines">
<g id="Vector">
<path d="M5.50005 4V0.104C5.09343 0.211983 4.72245 0.41829 4.42258 0.7032L2.06599 2.9656C1.76981 3.25391 1.555 3.60991 1.44184 4H5.50005Z" fill="#908A90"/>
<path d="M13.0548 0H7.16667V4C7.16667 4.42435 6.99108 4.83131 6.67853 5.13137C6.36598 5.43143 5.94207 5.6 5.50005 5.6H1.33351V14.4C1.32682 14.8172 1.49271 15.2199 1.79482 15.5198C2.09693 15.8197 2.5106 15.9924 2.94513 16H13.0548C13.4894 15.9924 13.903 15.8197 14.2051 15.5198C14.5072 15.2199 14.6731 14.8172 14.6665 14.4V1.6C14.6731 1.18282 14.5072 0.780122 14.2051 0.48019C13.903 0.180259 13.4894 0.00757502 13.0548 0ZM10.5549 12H5.35672C5.13572 12 4.92376 11.9157 4.76748 11.7657C4.61121 11.6157 4.52341 11.4122 4.52341 11.2C4.52341 10.9878 4.61121 10.7843 4.76748 10.6343C4.92376 10.4843 5.13572 10.4 5.35672 10.4H10.5549C10.7759 10.4 10.9879 10.4843 11.1441 10.6343C11.3004 10.7843 11.3882 10.9878 11.3882 11.2C11.3882 11.4122 11.3004 11.6157 11.1441 11.7657C10.9879 11.9157 10.7759 12 10.5549 12ZM10.5549 8.8H5.35672C5.13572 8.8 4.92376 8.71571 4.76748 8.56569C4.61121 8.41566 4.52341 8.21217 4.52341 8C4.52341 7.78783 4.61121 7.58434 4.76748 7.43431C4.92376 7.28429 5.13572 7.2 5.35672 7.2H10.5549C10.7759 7.2 10.9879 7.28429 11.1441 7.43431C11.3004 7.58434 11.3882 7.78783 11.3882 8C11.3882 8.21217 11.3004 8.41566 11.1441 8.56569C10.9879 8.71571 10.7759 8.8 10.5549 8.8Z" fill="#908A90"/>
</g>
</g>
</svg>
