<svg width="16" height="16" viewBox="0 0 16 16" fill="none" xmlns="http://www.w3.org/2000/svg">
<g id="file-check">
<g id="Vector">
<path d="M5.49998 4V0.104C5.09831 0.2144 4.72581 0.4112 4.42248 0.7032L2.06581 2.9656C1.76248 3.2568 1.55748 3.6144 1.44165 4H5.49998Z" fill="#908A90"/>
<path d="M13.055 0H7.16665V4C7.16665 4.8824 6.41915 5.6 5.49998 5.6H1.33331V14.4C1.33331 15.2824 2.05581 16 2.94498 16H13.0558C13.9441 16 14.6666 15.2824 14.6666 14.4V1.6C14.6666 0.7176 13.9441 0 13.055 0ZM11.0891 8.5656L7.75581 11.7656C7.59331 11.9216 7.37998 12 7.16665 12C6.95331 12 6.73998 11.9216 6.57748 11.7656L4.91081 10.1656C4.58498 9.8528 4.58498 9.3472 4.91081 9.0344C5.23665 8.7216 5.76331 8.7216 6.08915 9.0344L7.16665 10.0688L9.91081 7.4344C10.2366 7.1216 10.7633 7.1216 11.0891 7.4344C11.415 7.7472 11.415 8.2528 11.0891 8.5656Z" fill="#908A90"/>
</g>
</g>
</svg>
