<svg width="12" height="12" viewBox="0 0 12 12" fill="none" xmlns="http://www.w3.org/2000/svg">
<g id="filter" clip-path="url(#clip0_594_6444)">
<path id="Vector" d="M0.547208 0.861585L0.547214 0.86158L0.545492 0.859335C0.519499 0.825447 0.504507 0.786305 0.500874 0.746459C0.497243 0.706641 0.504945 0.666154 0.523902 0.629265C0.542915 0.592268 0.57294 0.559604 0.611984 0.536167C0.651118 0.512675 0.697148 0.499815 0.744791 0.500002V0.500006H0.74675L11.2532 0.50001L11.2552 0.500002C11.3028 0.499815 11.3489 0.512676 11.388 0.536166C11.4271 0.559603 11.4571 0.592267 11.4761 0.629265C11.4951 0.666157 11.5028 0.706644 11.4991 0.746456L11.9971 0.791866L11.4991 0.74646C11.4955 0.786304 11.4805 0.825445 11.4545 0.85933L11.4528 0.861585L7.09727 6.60704L6.99572 6.74099V6.90909V11.0165L5.00428 9.564V6.90909V6.74099L4.90273 6.60704L0.547208 0.861585Z" fill="white" stroke="white"/>
</g>
<defs>
<clipPath id="clip0_594_6444">
<rect width="12" height="12" fill="white"/>
</clipPath>
</defs>
</svg>
