<svg width="16" height="16" viewBox="0 0 16 16" fill="none" xmlns="http://www.w3.org/2000/svg">
<g id="grid-plus" clip-path="url(#clip0_359_4824)">
<g id="Vector">
<path d="M5.46044 0H1.65067C0.739029 0 0 0.739029 0 1.65067V5.46044C0 6.37208 0.739029 7.11111 1.65067 7.11111H5.46044C6.37208 7.11111 7.11111 6.37208 7.11111 5.46044V1.65067C7.11111 0.739029 6.37208 0 5.46044 0Z" fill="#908A90"/>
<path d="M14.3493 0H10.5396C9.62792 0 8.88889 0.739029 8.88889 1.65067V5.46044C8.88889 6.37208 9.62792 7.11111 10.5396 7.11111H14.3493C15.261 7.11111 16 6.37208 16 5.46044V1.65067C16 0.739029 15.261 0 14.3493 0Z" fill="#908A90"/>
<path d="M5.46044 8.88889H1.65067C0.739029 8.88889 0 9.62792 0 10.5396V14.3493C0 15.261 0.739029 16 1.65067 16H5.46044C6.37208 16 7.11111 15.261 7.11111 14.3493V10.5396C7.11111 9.62792 6.37208 8.88889 5.46044 8.88889Z" fill="#908A90"/>
<path d="M15.1111 11.5556H13.3333V9.77778C13.3333 9.54203 13.2397 9.31594 13.073 9.14924C12.9063 8.98254 12.6802 8.88889 12.4444 8.88889C12.2087 8.88889 11.9826 8.98254 11.8159 9.14924C11.6492 9.31594 11.5556 9.54203 11.5556 9.77778V11.5556H9.77778C9.54203 11.5556 9.31594 11.6492 9.14924 11.8159C8.98254 11.9826 8.88889 12.2087 8.88889 12.4444C8.88889 12.6802 8.98254 12.9063 9.14924 13.073C9.31594 13.2397 9.54203 13.3333 9.77778 13.3333H11.5556V15.1111C11.5556 15.3469 11.6492 15.573 11.8159 15.7397C11.9826 15.9064 12.2087 16 12.4444 16C12.6802 16 12.9063 15.9064 13.073 15.7397C13.2397 15.573 13.3333 15.3469 13.3333 15.1111V13.3333H15.1111C15.3469 13.3333 15.573 13.2397 15.7397 13.073C15.9064 12.9063 16 12.6802 16 12.4444C16 12.2087 15.9064 11.9826 15.7397 11.8159C15.573 11.6492 15.3469 11.5556 15.1111 11.5556Z" fill="#908A90"/>
</g>
</g>
<defs>
<clipPath id="clip0_359_4824">
<rect width="16" height="16" fill="white"/>
</clipPath>
</defs>
</svg>
