<svg width="29" height="29" viewBox="0 0 29 29" fill="none" xmlns="http://www.w3.org/2000/svg">
<g id="Logo">
<path id="Vector" d="M10.5745 0.747068C10.1678 0.747068 9.83613 1.06763 9.83613 1.46303V8.45882C9.83613 8.85321 10.1667 9.17478 10.5745 9.17478H14.1191C15.5666 9.17478 16.9452 9.72288 18.0016 10.7169C19.0643 11.7181 19.6577 13.0398 19.6743 14.4403C19.691 15.8753 19.1268 17.2263 18.0871 18.2456C17.0474 19.265 15.6604 19.8262 14.1817 19.8262H14.1191C12.6748 19.81 11.3118 19.2346 10.2793 18.2042C9.25422 17.1808 8.689 15.8429 8.689 14.4393V11.0021C8.689 10.6077 8.35841 10.2861 7.95066 10.2861H0.738335C0.331625 10.2861 0 10.6067 0 11.0021V17.9979C0 18.3923 0.330582 18.7139 0.738335 18.7139H6.43123C7.19668 18.7139 7.68995 18.724 8.09666 18.7776C8.63685 18.8484 8.99872 18.998 9.27195 19.262C9.54517 19.5259 9.69847 19.8778 9.77147 20.4016C9.82674 20.797 9.83717 21.2743 9.83717 22.0176V27.537C9.83717 27.9314 10.1678 28.2529 10.5755 28.2529H14.1827C15.8022 28.2529 17.3926 27.989 18.9099 27.4692C24.5653 25.5307 28.3654 20.3187 28.3654 14.5C28.3654 8.6813 24.5653 3.46934 18.9099 1.53078C17.3926 1.011 15.8022 0.747068 14.1827 0.747068H10.5755H10.5745Z" fill="url(#paint0_linear_359_4662)"/>
</g>
<defs>
<linearGradient id="paint0_linear_359_4662" x1="23.1591" y1="7.97171" x2="3.19278" y2="22.2126" gradientUnits="userSpaceOnUse">
<stop stop-color="#D57776"/>
<stop offset="0.28125" stop-color="#F56E3F"/>
<stop offset="0.765625" stop-color="#F28B00"/>
<stop offset="0.963542" stop-color="#F28202"/>
</linearGradient>
</defs>
</svg>
