<svg width="16" height="16" viewBox="0 0 16 16" fill="none" xmlns="http://www.w3.org/2000/svg">
<path id="Vector" d="M1.09952 5.34698C-0.366508 6.78457 -0.366508 9.18785 1.09952 10.6536L5.34698 14.9007C6.78457 16.3664 9.18785 16.3664 10.6536 14.9007L14.9007 10.6536C16.3664 9.18785 16.3664 6.78457 14.9007 5.34698L10.6536 1.09952C9.18785 -0.366508 6.78457 -0.366508 5.34698 1.09952L1.09952 5.34698ZM9.85977 9.85977C8.83158 10.8848 7.16897 10.8848 6.14391 9.85977C5.11572 8.83158 5.11572 7.16897 6.14391 6.14391C7.16897 5.11572 8.83158 5.11572 9.85977 6.14391C10.8848 7.16897 10.8848 8.83158 9.85977 9.85977Z" fill="#908A90"/>
</svg>
