<svg width="16" height="16" viewBox="0 0 16 16" fill="none" xmlns="http://www.w3.org/2000/svg">
<g id="Group">
<path id="Vector" fill-rule="evenodd" clip-rule="evenodd" d="M0 2.66849C0 1.96076 0.280952 1.28202 0.781049 0.781582C1.28115 0.281144 1.95942 0 2.66667 0H13.3333C14.0406 0 14.7189 0.281144 15.219 0.781582C15.719 1.28202 16 1.96076 16 2.66849V9.78446C16 10.4922 15.719 11.1709 15.219 11.6714C14.7189 12.1718 14.0406 12.4529 13.3333 12.4529H10.1458L12.184 14.4926C12.3459 14.6603 12.4355 14.885 12.4335 15.1182C12.4315 15.3515 12.338 15.5746 12.1732 15.7395C12.0084 15.9044 11.7854 15.9979 11.5524 16C11.3193 16.002 11.0948 15.9123 10.9271 15.7503L8 12.8212L5.07289 15.7503C4.90524 15.9123 4.68071 16.002 4.44764 16C4.21458 15.9979 3.99164 15.9044 3.82683 15.7395C3.66202 15.5746 3.56854 15.3515 3.56651 15.1182C3.56449 14.885 3.65408 14.6603 3.816 14.4926L5.85422 12.4529H2.66667C1.95942 12.4529 1.28115 12.1718 0.781049 11.6714C0.280952 11.1709 0 10.4922 0 9.78446V2.66849ZM12.4444 4.44748C12.4444 4.21157 12.3508 3.98532 12.1841 3.81851C12.0174 3.6517 11.7913 3.55798 11.5556 3.55798C11.3198 3.55798 11.0937 3.6517 10.927 3.81851C10.7603 3.98532 10.6667 4.21157 10.6667 4.44748V8.00546C10.6667 8.24137 10.7603 8.46762 10.927 8.63443C11.0937 8.80125 11.3198 8.89496 11.5556 8.89496C11.7913 8.89496 12.0174 8.80125 12.1841 8.63443C12.3508 8.46762 12.4444 8.24137 12.4444 8.00546V4.44748ZM8.88889 6.22647C8.88889 5.99056 8.79524 5.76432 8.62854 5.5975C8.46184 5.43069 8.23575 5.33698 8 5.33698C7.76425 5.33698 7.53816 5.43069 7.37146 5.5975C7.20476 5.76432 7.11111 5.99056 7.11111 6.22647V8.00546C7.11111 8.24137 7.20476 8.46762 7.37146 8.63443C7.53816 8.80125 7.76425 8.89496 8 8.89496C8.23575 8.89496 8.46184 8.80125 8.62854 8.63443C8.79524 8.46762 8.88889 8.24137 8.88889 8.00546V6.22647ZM5.33333 7.11597C5.33333 6.88006 5.23968 6.65381 5.07298 6.487C4.90628 6.32019 4.68019 6.22647 4.44444 6.22647C4.2087 6.22647 3.9826 6.32019 3.81591 6.487C3.64921 6.65381 3.55556 6.88006 3.55556 7.11597V8.00546C3.55556 8.24137 3.64921 8.46762 3.81591 8.63443C3.9826 8.80125 4.2087 8.89496 4.44444 8.89496C4.68019 8.89496 4.90628 8.80125 5.07298 8.63443C5.23968 8.46762 5.33333 8.24137 5.33333 8.00546V7.11597Z" fill="#908A90"/>
</g>
</svg>
