<svg width="16" height="16" viewBox="0 0 16 16" fill="none" xmlns="http://www.w3.org/2000/svg">
<g id="Frame">
<path id="Vector" d="M1.6 16C1.16 16 0.783201 15.8407 0.469601 15.5222C0.156001 15.2037 -0.000531975 14.8213 1.35823e-06 14.375V2.625C1.35823e-06 2.17813 0.156801 1.79544 0.470401 1.47694C0.784001 1.15844 1.16053 0.99946 1.6 1H14.4C14.84 1 15.2168 1.15925 15.5304 1.47775C15.844 1.79625 16.0005 2.17867 16 2.625V14.375C16 14.8219 15.8432 15.2046 15.5296 15.5231C15.216 15.8416 14.8395 16.0005 14.4 16H1.6ZM7.6 11.75C7.94667 11.75 8.28 11.7026 8.6 11.6078C8.92 11.513 9.22667 11.3708 9.52 11.1812L10.9 12.5828C11.0467 12.7318 11.2333 12.8062 11.46 12.8062C11.6867 12.8062 11.8733 12.7318 12.02 12.5828C12.1667 12.4339 12.24 12.2443 12.24 12.0141C12.24 11.7839 12.1667 11.5943 12.02 11.4453L10.64 10.0437C10.8267 9.74583 10.9667 9.43437 11.06 9.10938C11.1533 8.78438 11.2 8.44583 11.2 8.09375C11.2 7.07812 10.8499 6.21471 10.1496 5.5035C9.44933 4.79229 8.59947 4.43696 7.6 4.4375C6.6 4.4375 5.74987 4.7931 5.0496 5.50431C4.34933 6.21552 3.99947 7.07867 4 8.09375C4 9.10938 4.35013 9.97279 5.0504 10.684C5.75067 11.3952 6.60053 11.7505 7.6 11.75ZM7.6 10.125C7.04 10.125 6.56667 9.92865 6.18 9.53594C5.79333 9.14323 5.6 8.6625 5.6 8.09375C5.6 7.525 5.79333 7.04427 6.18 6.65156C6.56667 6.25885 7.04 6.0625 7.6 6.0625C8.16 6.0625 8.63333 6.25885 9.02 6.65156C9.40667 7.04427 9.6 7.525 9.6 8.09375C9.6 8.6625 9.40667 9.14323 9.02 9.53594C8.63333 9.92865 8.16 10.125 7.6 10.125Z" fill="#908A90"/>
</g>
</svg>
