<svg width="16" height="16" viewBox="0 0 16 16" fill="none" xmlns="http://www.w3.org/2000/svg">
<g id="shield" clip-path="url(#clip0_359_4868)">
<path id="Vector" d="M14.8045 2.45016L8.28602 0.0501197C8.10199 -0.0167066 7.89968 -0.0167066 7.71565 0.0501197L1.19713 2.45016C1.04141 2.5071 0.90715 2.60942 0.81234 2.7434C0.71753 2.87739 0.666707 3.03663 0.666687 3.19977C0.690411 5.70289 1.33044 8.16323 2.53218 10.3709C3.73392 12.5786 5.46171 14.4682 7.56817 15.8784C7.69767 15.9579 7.84731 16 8.00002 16C8.15273 16 8.30237 15.9579 8.43187 15.8784C10.5383 14.4682 12.2661 12.5786 13.4679 10.3709C14.6696 8.16323 15.3096 5.70289 15.3334 3.19977C15.3335 3.03682 15.2829 2.87771 15.1884 2.74375C15.0939 2.60979 14.96 2.50736 14.8045 2.45016Z" fill="#908A90"/>
</g>
<defs>
<clipPath id="clip0_359_4868">
<rect width="16" height="16" fill="white"/>
</clipPath>
</defs>
</svg>
