<svg width="16" height="14" viewBox="0 0 16 14" fill="none" xmlns="http://www.w3.org/2000/svg">
<path id="Vector" d="M1.56784 14V3.96667L0 0.661111L1.44724 0L3.33668 3.92778H12.6633L14.5528 0L16 0.661111L14.4322 3.96667V14H1.56784ZM6.39196 8.55556H9.60804C9.83584 8.55556 10.0269 8.48089 10.1813 8.33156C10.3357 8.18222 10.4126 7.99763 10.4121 7.77778C10.4121 7.55741 10.3349 7.37282 10.1805 7.224C10.0261 7.07519 9.83531 7.00052 9.60804 7H6.39196C6.16415 7 5.97333 7.07467 5.8195 7.224C5.66566 7.37333 5.58848 7.55793 5.58794 7.77778C5.58794 7.99815 5.66513 8.183 5.8195 8.33233C5.97387 8.48167 6.16469 8.55607 6.39196 8.55556Z" fill="#BBB5C6"/>
</svg>
