<svg width="16" height="16" viewBox="0 0 16 16" fill="none" xmlns="http://www.w3.org/2000/svg">
<g id="Frame" clip-path="url(#clip0_569_8821)">
<g id="Group">
<path id="Vector" fill-rule="evenodd" clip-rule="evenodd" d="M8 8.87829e-06C9.8463 -0.00274614 11.6363 0.635758 13.064 1.80641L9.0344 5.83361C8.53035 5.59263 7.95803 5.53506 7.41608 5.6708C6.87414 5.80655 6.39653 6.12712 6.06559 6.57724C5.73465 7.02736 5.57112 7.57884 5.60318 8.1366C5.63524 8.69437 5.86089 9.22347 6.24122 9.63271C6.62155 10.042 7.13274 10.3057 7.68667 10.3784C8.2406 10.4512 8.80256 10.3284 9.27567 10.0313C9.74879 9.73415 10.1034 9.28126 10.2784 8.75069C10.4534 8.22012 10.4379 7.64512 10.2344 7.1248L10.1664 6.96481L14.1936 2.93601C15.3643 4.36371 16.0028 6.15369 16 8C16 12.4184 12.4184 16 8 16C3.5816 16 0 12.4184 0 8C0 3.58161 3.5816 8.87829e-06 8 8.87829e-06ZM2.4 7.20001H1.6496C1.5944 7.6432 1.58528 8.09093 1.6224 8.536L1.6496 8.8H2.4C2.6039 8.79978 2.80002 8.7217 2.94829 8.58173C3.09656 8.44175 3.18579 8.25044 3.19774 8.04689C3.20969 7.84334 3.14346 7.6429 3.01259 7.48654C2.88171 7.33018 2.69608 7.22969 2.4936 7.20561L2.4 7.20001ZM14.3504 7.20001H13.6C13.3961 7.20023 13.2 7.27831 13.0517 7.41828C12.9034 7.55826 12.8142 7.74957 12.8023 7.95312C12.7903 8.15667 12.8565 8.35711 12.9874 8.51347C13.1183 8.66983 13.3039 8.77032 13.5064 8.7944L13.6 8.8H14.3504C14.4057 8.35681 14.4148 7.90908 14.3776 7.464L14.3504 7.20001ZM8 7.20001C8.21217 7.20001 8.41565 7.28429 8.56568 7.43432C8.71571 7.58435 8.79999 7.78783 8.79999 8C8.79999 8.21218 8.71571 8.41566 8.56568 8.56569C8.41565 8.71572 8.21217 8.8 8 8.8C7.78782 8.8 7.58434 8.71572 7.43431 8.56569C7.28428 8.41566 7.2 8.21218 7.2 8C7.2 7.78783 7.28428 7.58435 7.43431 7.43432C7.58434 7.28429 7.78782 7.20001 8 7.20001ZM4.0752 2.94401C3.73727 3.20682 3.4264 3.50269 3.1472 3.82721L2.944 4.07521L3.4744 4.60561C3.61803 4.75061 3.81165 4.83523 4.01564 4.84215C4.21962 4.84907 4.41853 4.77777 4.57166 4.64283C4.72479 4.5079 4.82056 4.31954 4.83936 4.11631C4.85816 3.91308 4.79857 3.71034 4.6728 3.54961L4.6056 3.47441L4.0752 2.94401ZM8 1.60001C7.73256 1.59991 7.46537 1.61648 7.2 1.64961V2.40001C7.2 2.61218 7.28428 2.81566 7.43431 2.96569C7.58434 3.11572 7.78782 3.20001 8 3.20001C8.21217 3.20001 8.41565 3.11572 8.56568 2.96569C8.71571 2.81566 8.79999 2.61218 8.79999 2.40001V1.64961C8.53461 1.61654 8.26743 1.59997 8 1.60001Z" fill="#BBB5C6"/>
</g>
</g>
<defs>
<clipPath id="clip0_569_8821">
<rect width="16" height="16" fill="white"/>
</clipPath>
</defs>
</svg>
