<svg width="16" height="16" viewBox="0 0 16 16" fill="none" xmlns="http://www.w3.org/2000/svg">
<path id="Vector" d="M4.8 12.8C4.36 12.8 3.98347 12.6435 3.6704 12.3304C3.35733 12.0173 3.20053 11.6405 3.2 11.2V1.6C3.2 1.16 3.3568 0.783467 3.6704 0.4704C3.984 0.157333 4.36053 0.000533333 4.8 0H14.4C14.84 0 15.2168 0.1568 15.5304 0.4704C15.844 0.784 16.0005 1.16053 16 1.6V11.2C16 11.64 15.8435 12.0168 15.5304 12.3304C15.2173 12.644 14.8405 12.8005 14.4 12.8H4.8ZM1.6 16C1.16 16 0.783467 15.8435 0.4704 15.5304C0.157333 15.2173 0.000533333 14.8405 0 14.4V4C0 3.77333 0.0768001 3.58347 0.2304 3.4304C0.384 3.27733 0.573867 3.20053 0.8 3.2C1.02667 3.2 1.2168 3.2768 1.3704 3.4304C1.524 3.584 1.60053 3.77387 1.6 4V14.4H12C12.2267 14.4 12.4168 14.4768 12.5704 14.6304C12.724 14.784 12.8005 14.9739 12.8 15.2C12.8 15.4267 12.7232 15.6168 12.5696 15.7704C12.416 15.924 12.2261 16.0005 12 16H1.6ZM4.8 3.2H14.4V1.6H4.8V3.2Z" fill="#908A90"/>
</svg>
