<svg width="16" height="16" viewBox="0 0 16 16" fill="none" xmlns="http://www.w3.org/2000/svg">
<g id="store" clip-path="url(#clip0_359_4754)">
<path id="Vector" d="M16 4.84211C16 3.76168 14.6992 1.19579 14.3008 0.435368C14.2317 0.303445 14.1302 0.193461 14.0069 0.116884C13.8837 0.0403071 13.7431 -5.71239e-05 13.6 6.90005e-08H2.4C2.25827 -6.0318e-05 2.11906 0.0395168 1.99663 0.114682C1.8742 0.189847 1.77293 0.297902 1.7032 0.427789C1.304 1.17305 0 3.69263 0 4.84211C0.00034895 5.20985 0.0714072 5.57372 0.208895 5.9118C0.346382 6.24987 0.547454 6.55516 0.8 6.80926V15.1579C0.8 15.3812 0.884285 15.5954 1.03431 15.7534C1.18434 15.9113 1.38783 16 1.6 16H3.2C3.41217 16 3.61566 15.9113 3.76569 15.7534C3.91571 15.5954 4 15.3812 4 15.1579V10.1053H7.2V15.1579C7.2 15.3812 7.28429 15.5954 7.43431 15.7534C7.58434 15.9113 7.78783 16 8 16H14.4C14.6122 16 14.8157 15.9113 14.9657 15.7534C15.1157 15.5954 15.2 15.3812 15.2 15.1579V6.77389C15.4483 6.52375 15.6469 6.22416 15.7842 5.89253C15.9215 5.56089 15.9949 5.20384 16 4.84211ZM2.8728 1.68421H13.12C13.6724 2.67532 14.1025 3.73651 14.4 4.84211C14.3836 5.11561 14.2729 5.37343 14.0889 5.56721C13.9048 5.761 13.6598 5.87745 13.4 5.89474C13.1349 5.89429 12.8808 5.78325 12.6934 5.58594C12.5059 5.38863 12.4004 5.12114 12.4 4.84211C12.4 4.61876 12.3157 4.40457 12.1657 4.24665C12.0157 4.08872 11.8122 4 11.6 4C11.3878 4 11.1843 4.08872 11.0343 4.24665C10.8843 4.40457 10.8 4.61876 10.8 4.84211C10.8 5.12128 10.6946 5.38902 10.5071 5.58643C10.3196 5.78383 10.0652 5.89474 9.8 5.89474C9.53478 5.89474 9.28043 5.78383 9.09289 5.58643C8.90536 5.38902 8.8 5.12128 8.8 4.84211C8.8 4.61876 8.71571 4.40457 8.56569 4.24665C8.41566 4.08872 8.21217 4 8 4C7.78783 4 7.58434 4.08872 7.43431 4.24665C7.28429 4.40457 7.2 4.61876 7.2 4.84211C7.2 5.12128 7.09464 5.38902 6.90711 5.58643C6.71957 5.78383 6.46522 5.89474 6.2 5.89474C5.93478 5.89474 5.68043 5.78383 5.49289 5.58643C5.30536 5.38902 5.2 5.12128 5.2 4.84211C5.2 4.61876 5.11571 4.40457 4.96569 4.24665C4.81566 4.08872 4.61217 4 4.4 4C4.18783 4 3.98434 4.08872 3.83431 4.24665C3.68429 4.40457 3.6 4.61876 3.6 4.84211C3.59958 5.12114 3.49408 5.38863 3.30664 5.58594C3.11919 5.78325 2.86509 5.89429 2.6 5.89474C2.33581 5.89124 2.08338 5.77922 1.89656 5.58257C1.70974 5.38591 1.60332 5.12019 1.6 4.84211C1.88341 3.73255 2.31176 2.66978 2.8728 1.68421ZM12.4 11.7895C12.4 11.9011 12.3579 12.0082 12.2828 12.0872C12.2078 12.1662 12.1061 12.2105 12 12.2105H9.6C9.49391 12.2105 9.39217 12.1662 9.31716 12.0872C9.24214 12.0082 9.2 11.9011 9.2 11.7895V9.26316C9.2 9.15149 9.24214 9.04439 9.31716 8.96543C9.39217 8.88647 9.49391 8.8421 9.6 8.8421H12C12.1061 8.8421 12.2078 8.88647 12.2828 8.96543C12.3579 9.04439 12.4 9.15149 12.4 9.26316V11.7895Z" fill="#908A90"/>
</g>
<defs>
<clipPath id="clip0_359_4754">
<rect width="16" height="16" fill="white"/>
</clipPath>
</defs>
</svg>
