<svg width="16" height="16" viewBox="0 0 16 16" fill="none" xmlns="http://www.w3.org/2000/svg">
<g id="tag" clip-path="url(#clip0_569_8894)">
<path id="Vector" d="M13.3826 0.00703401L8.27595 0C7.8132 0.00139943 7.36964 0.186523 7.0414 0.515248L0.510899 7.09565C0.183771 7.42542 0 7.87263 0 8.33892C0 8.80522 0.183771 9.25243 0.510899 9.5822L6.36697 15.4847C6.52901 15.6481 6.72141 15.7777 6.93316 15.8661C7.14492 15.9545 7.37188 16 7.60109 16C7.8303 16 8.05727 15.9545 8.26902 15.8661C8.48077 15.7777 8.67317 15.6481 8.83521 15.4847L15.4364 8.83043C15.6141 8.66572 15.7559 8.46565 15.8529 8.24287C15.9499 8.02009 16 7.77945 16 7.53616V2.64482C16 1.94524 15.7242 1.2743 15.2334 0.779624C14.7425 0.284943 14.0768 0.00703401 13.3826 0.00703401ZM12.5101 4.83594C12.5101 5.0968 12.4333 5.35179 12.2895 5.56868C12.1457 5.78557 11.9413 5.95462 11.7022 6.05444C11.4631 6.15426 11.1999 6.18038 10.9461 6.12949C10.6922 6.0786 10.459 5.95299 10.276 5.76854C10.0929 5.58409 9.9683 5.34909 9.9178 5.09325C9.8673 4.83741 9.89322 4.57222 9.99227 4.33122C10.0913 4.09023 10.2591 3.88424 10.4743 3.73932C10.6895 3.5944 10.9425 3.51705 11.2014 3.51705C11.5485 3.51705 11.8813 3.656 12.1268 3.90334C12.3722 4.15068 12.5101 4.48615 12.5101 4.83594Z" fill="#BBB5C6"/>
</g>
<defs>
<clipPath id="clip0_569_8894">
<rect width="16" height="16" fill="white"/>
</clipPath>
</defs>
</svg>
