<svg width="16" height="16" viewBox="0 0 16 16" fill="none" xmlns="http://www.w3.org/2000/svg">
<path id="Vector" d="M0 3.33333C0 2.44928 0.351189 1.60143 0.976311 0.976311C1.60143 0.351189 2.44928 0 3.33333 0H12.6667C13.5507 0 14.3986 0.351189 15.0237 0.976311C15.6488 1.60143 16 2.44928 16 3.33333V12.6667C16 13.5507 15.6488 14.3986 15.0237 15.0237C14.3986 15.6488 13.5507 16 12.6667 16H3.33333C2.44928 16 1.60143 15.6488 0.976311 15.0237C0.351189 14.3986 0 13.5507 0 12.6667V3.33333ZM8.66667 11.3333C8.66667 11.5101 8.7369 11.6797 8.86193 11.8047C8.98695 11.9298 9.15652 12 9.33333 12H12.3333C12.5101 12 12.6797 11.9298 12.8047 11.8047C12.9298 11.6797 13 11.5101 13 11.3333C13 11.1565 12.9298 10.987 12.8047 10.8619C12.6797 10.7369 12.5101 10.6667 12.3333 10.6667H9.33333C9.15652 10.6667 8.98695 10.7369 8.86193 10.8619C8.7369 10.987 8.66667 11.1565 8.66667 11.3333ZM9.33333 5.33333C9.15652 5.33333 8.98695 5.40357 8.86193 5.5286C8.7369 5.65362 8.66667 5.82319 8.66667 6C8.66667 6.17681 8.7369 6.34638 8.86193 6.4714C8.98695 6.59643 9.15652 6.66667 9.33333 6.66667H12.3333C12.5101 6.66667 12.6797 6.59643 12.8047 6.4714C12.9298 6.34638 13 6.17681 13 6C13 5.82319 12.9298 5.65362 12.8047 5.5286C12.6797 5.40357 12.5101 5.33333 12.3333 5.33333H9.33333ZM7.13867 9.528C7.07674 9.46592 7.00317 9.41666 6.92218 9.38305C6.84119 9.34944 6.75436 9.33214 6.66667 9.33214C6.57898 9.33214 6.49215 9.34944 6.41116 9.38305C6.33016 9.41666 6.25659 9.46592 6.19467 9.528L4.66667 11.0573L4.14133 10.5307C4.01633 10.4055 3.84671 10.3351 3.66981 10.335C3.4929 10.3348 3.32318 10.405 3.198 10.53C3.07282 10.655 3.00242 10.8246 3.0023 11.0015C3.00217 11.1784 3.07233 11.3482 3.19733 11.4733L4.19467 12.472C4.25659 12.5341 4.33016 12.5833 4.41116 12.617C4.49215 12.6506 4.57898 12.6679 4.66667 12.6679C4.75436 12.6679 4.84119 12.6506 4.92218 12.617C5.00317 12.5833 5.07674 12.5341 5.13867 12.472L7.13867 10.472C7.20075 10.4101 7.25001 10.3365 7.28362 10.2555C7.31723 10.1745 7.33453 10.0877 7.33453 10C7.33453 9.91231 7.31723 9.82548 7.28362 9.74449C7.25001 9.6635 7.20075 9.58993 7.13867 9.528ZM7.13867 5.13867C7.20065 5.07668 7.24982 5.0031 7.28336 4.92211C7.31691 4.84113 7.33418 4.75433 7.33418 4.66667C7.33418 4.57901 7.31691 4.49221 7.28336 4.41122C7.24982 4.33024 7.20065 4.25665 7.13867 4.19467C7.07668 4.13268 7.0031 4.08351 6.92211 4.04997C6.84113 4.01642 6.75433 3.99916 6.66667 3.99916C6.57901 3.99916 6.49221 4.01642 6.41122 4.04997C6.33024 4.08351 6.25665 4.13268 6.19467 4.19467L4.66667 5.724L4.14133 5.19733C4.01615 5.07215 3.84637 5.00182 3.66933 5.00182C3.4923 5.00182 3.32252 5.07215 3.19733 5.19733C3.07215 5.32252 3.00182 5.4923 3.00182 5.66933C3.00182 5.84637 3.07215 6.01615 3.19733 6.14133L4.19467 7.13867C4.25659 7.20075 4.33016 7.25001 4.41116 7.28362C4.49215 7.31723 4.57898 7.33453 4.66667 7.33453C4.75436 7.33453 4.84119 7.31723 4.92218 7.28362C5.00317 7.25001 5.07674 7.20075 5.13867 7.13867L7.13867 5.13867Z" fill="#BBB5C6"/>
</svg>
