<svg width="16" height="16" viewBox="0 0 16 16" fill="none" xmlns="http://www.w3.org/2000/svg">
<g id="thumbs-up" clip-path="url(#clip0_359_4748)">
<g id="Vector">
<path d="M3.37655 5.81828H0.844138C0.620259 5.81828 0.405549 5.90182 0.247242 6.05052C0.0889357 6.19923 0 6.40091 0 6.6112V13.7475C0 14.1681 0.177871 14.5714 0.494485 14.8688C0.811098 15.1662 1.24052 15.3333 1.68828 15.3333H2.53242C2.98017 15.3333 3.40959 15.1662 3.72621 14.8688C4.04282 14.5714 4.22069 14.1681 4.22069 13.7475V6.6112C4.22069 6.40091 4.13176 6.19923 3.97345 6.05052C3.81514 5.90182 3.60043 5.81828 3.37655 5.81828Z" fill="#908A90"/>
<path d="M14.3115 5.81828H10.9738L12.289 2.25014C12.3321 1.92363 12.2523 1.59323 12.0634 1.31616C11.8745 1.03909 11.5884 0.832809 11.2546 0.733038C10.9209 0.633268 10.5605 0.646296 10.2358 0.769865C9.91121 0.893435 9.64281 1.11976 9.47714 1.40965C8.50147 2.97371 7.30076 4.40388 5.90897 5.6597V13.2606H6.0052C7.78549 13.7229 10.1423 14.5404 12.3244 14.5404C13.5062 14.5404 13.6683 14.1233 13.9114 13.4961L15.8985 7.94569C15.9912 7.70613 16.021 7.44912 15.9855 7.19643C15.9499 6.94374 15.8501 6.70282 15.6944 6.49409C15.5386 6.28535 15.3317 6.11494 15.0909 5.9973C14.8502 5.87966 14.5829 5.81825 14.3115 5.81828Z" fill="#908A90"/>
</g>
</g>
<defs>
<clipPath id="clip0_359_4748">
<rect width="16" height="16" fill="white"/>
</clipPath>
</defs>
</svg>
