<svg width="14" height="15" viewBox="0 0 14 15" fill="none" xmlns="http://www.w3.org/2000/svg">
<g id="trash" clip-path="url(#clip0_569_8782)">
<path id="Vector" d="M12.7036 3.44737H9.85177V1.97368C9.85177 1.58284 9.70154 1.208 9.43413 0.931632C9.16671 0.655263 8.80402 0.5 8.42584 0.5H5.57399C5.19581 0.5 4.83312 0.655263 4.56571 0.931632C4.2983 1.208 4.14807 1.58284 4.14807 1.97368V3.44737H1.29621C1.10713 3.44737 0.92578 3.525 0.792074 3.66318C0.658367 3.80137 0.583252 3.98879 0.583252 4.18421C0.583252 4.37963 0.658367 4.56705 0.792074 4.70524C0.92578 4.84342 1.10713 4.92105 1.29621 4.92105H2.00918V13.0263C2.00918 13.4172 2.15941 13.792 2.42682 14.0684C2.69423 14.3447 3.05692 14.5 3.4351 14.5H10.5647C10.9429 14.5 11.3056 14.3447 11.573 14.0684C11.8404 13.792 11.9907 13.4172 11.9907 13.0263V4.92105H12.7036C12.8927 4.92105 13.0741 4.84342 13.2078 4.70524C13.3415 4.56705 13.4166 4.37963 13.4166 4.18421C13.4166 3.98879 13.3415 3.80137 13.2078 3.66318C13.0741 3.525 12.8927 3.44737 12.7036 3.44737ZM5.57399 1.97368H8.42584V3.44737H5.57399V1.97368ZM6.28696 11.5526C6.28696 11.7481 6.21184 11.9355 6.07813 12.0737C5.94443 12.2118 5.76308 12.2895 5.57399 12.2895C5.3849 12.2895 5.20356 12.2118 5.06985 12.0737C4.93615 11.9355 4.86103 11.7481 4.86103 11.5526V6.39474C4.86103 6.19931 4.93615 6.0119 5.06985 5.87371C5.20356 5.73553 5.3849 5.65789 5.57399 5.65789C5.76308 5.65789 5.94443 5.73553 6.07813 5.87371C6.21184 6.0119 6.28696 6.19931 6.28696 6.39474V11.5526ZM9.13881 11.5526C9.13881 11.7481 9.06369 11.9355 8.92999 12.0737C8.79628 12.2118 8.61493 12.2895 8.42584 12.2895C8.23676 12.2895 8.05541 12.2118 7.9217 12.0737C7.788 11.9355 7.71288 11.7481 7.71288 11.5526V6.39474C7.71288 6.19931 7.788 6.0119 7.9217 5.87371C8.05541 5.73553 8.23676 5.65789 8.42584 5.65789C8.61493 5.65789 8.79628 5.73553 8.92999 5.87371C9.06369 6.0119 9.13881 6.19931 9.13881 6.39474V11.5526Z" fill="#BBB5C6"/>
</g>
<defs>
<clipPath id="clip0_569_8782">
<rect width="14" height="14" fill="white" transform="translate(0 0.5)"/>
</clipPath>
</defs>
</svg>
