<svg width="16" height="16" viewBox="0 0 16 16" fill="none" xmlns="http://www.w3.org/2000/svg">
<g id="users-group" clip-path="url(#clip0_359_4760)">
<g id="Vector">
<path d="M8 8.42108C9.32548 8.42108 10.4 7.29001 10.4 5.89477C10.4 4.49953 9.32548 3.36846 8 3.36846C6.67452 3.36846 5.6 4.49953 5.6 5.89477C5.6 7.29001 6.67452 8.42108 8 8.42108Z" fill="#908A90"/>
<path d="M7.2 10.9474H8.8C9.64869 10.9474 10.4626 11.3023 11.0627 11.934C11.6629 12.5657 12 13.4224 12 14.3158V16H4V14.3158C4 13.4224 4.33714 12.5657 4.93726 11.934C5.53737 11.3023 6.35131 10.9474 7.2 10.9474Z" fill="#908A90"/>
<path d="M10.4 5.89477C10.3994 5.2994 10.1987 4.72345 9.83335 4.26893C9.46803 3.81441 8.96169 3.51063 8.404 3.4114" fill="#908A90"/>
<path d="M11.6 5.17135e-05C11.0252 0.00190139 10.4616 0.16721 9.96871 0.478498C9.47584 0.789786 9.07203 1.23549 8.8 1.76847C9.70294 1.96377 10.5143 2.48085 11.0972 3.23252C11.6801 3.98419 11.999 4.92445 12 5.89477C11.9987 6.16636 11.9719 6.43714 11.92 6.70319C12.738 6.62125 13.4944 6.21034 14.0318 5.55602C14.5692 4.9017 14.8461 4.0544 14.8049 3.19056C14.7636 2.32671 14.4074 1.5129 13.8104 0.918587C13.2134 0.324271 12.4217 -0.00474469 11.6 5.17135e-05Z" fill="#908A90"/>
<path d="M5.8928 9.45855C5.20999 9.00842 4.67041 8.35394 4.3432 7.57897H4C2.93952 7.58031 1.92285 8.02435 1.17298 8.81368C0.423105 9.60302 0.00127029 10.6732 0 11.7895V13.4737C0 13.697 0.0842854 13.9112 0.234314 14.0691C0.384344 14.2271 0.587827 14.3158 0.8 14.3158H2.4C2.40183 13.2167 2.7437 12.1481 3.3739 11.2717C4.0041 10.3953 4.88833 9.75881 5.8928 9.45855Z" fill="#908A90"/>
<path d="M12 7.57897H11.6568C11.3296 8.35394 10.79 9.00842 10.1072 9.45855C11.1117 9.75881 11.9959 10.3953 12.6261 11.2717C13.2563 12.1481 13.5982 13.2167 13.6 14.3158H15.2C15.4122 14.3158 15.6157 14.2271 15.7657 14.0691C15.9157 13.9112 16 13.697 16 13.4737V11.7895C15.9987 10.6732 15.5769 9.60302 14.827 8.81368C14.0772 8.02435 13.0605 7.58031 12 7.57897Z" fill="#908A90"/>
<path d="M4 5.89477C4.00101 4.92446 4.31987 3.98419 4.9028 3.23252C5.48572 2.48086 6.29706 1.96377 7.2 1.76847C6.93881 1.25798 6.55651 0.827372 6.09032 0.518555C5.62412 0.209737 5.0899 0.0332351 4.53967 0.00622825C3.98944 -0.0207786 3.44195 0.10263 2.95047 0.364442C2.459 0.626254 2.04029 1.01755 1.7351 1.50024C1.42992 1.98293 1.24866 2.54057 1.20897 3.11888C1.16927 3.69719 1.2725 4.27646 1.50859 4.80032C1.74468 5.32417 2.10561 5.77476 2.55622 6.10822C3.00684 6.44169 3.5318 6.64666 4.08 6.70319C4.02812 6.43715 4.00133 6.16636 4 5.89477Z" fill="#908A90"/>
</g>
</g>
<defs>
<clipPath id="clip0_359_4760">
<rect width="16" height="16" fill="white"/>
</clipPath>
</defs>
</svg>
