<svg width="16" height="16" viewBox="0 0 16 16" fill="none" xmlns="http://www.w3.org/2000/svg">
<g id="users" clip-path="url(#clip0_569_8848)">
<g id="Vector">
<path d="M5.2 7.60526C7.18823 7.60526 8.8 6.0147 8.8 4.05263C8.8 2.09057 7.18823 0.5 5.2 0.5C3.21177 0.5 1.6 2.09057 1.6 4.05263C1.6 6.0147 3.21177 7.60526 5.2 7.60526Z" fill="#BBB5C6"/>
<path d="M6.4 8.39474H4C2.93952 8.39599 1.92285 8.81228 1.17298 9.55228C0.423106 10.2923 0.00127029 11.2956 0 12.3421V14.7105C0 14.9199 0.0842854 15.1207 0.234315 15.2688C0.384344 15.4168 0.587827 15.5 0.8 15.5H9.6C9.81217 15.5 10.0157 15.4168 10.1657 15.2688C10.3157 15.1207 10.4 14.9199 10.4 14.7105V12.3421C10.3987 11.2956 9.97689 10.2923 9.22702 9.55228C8.47715 8.81228 7.46048 8.39599 6.4 8.39474Z" fill="#BBB5C6"/>
<path d="M8.1352 6.09579C8.56668 5.49951 8.79906 4.78533 8.8 4.05263C8.79828 3.79249 8.7677 3.53331 8.7088 3.27973C8.38299 3.66479 8.15987 4.12409 8.05969 4.61589C7.95952 5.10769 7.98547 5.6164 8.1352 6.09579Z" fill="#BBB5C6"/>
<path d="M11.2 2.07895C10.8168 2.08184 10.4374 2.15326 10.08 2.28974C10.4091 3.16377 10.4881 4.1103 10.3085 5.0257C10.1289 5.94111 9.69749 6.7901 9.0616 7.47974C9.42044 7.67604 9.75655 7.91031 10.064 8.17842C10.426 8.31875 10.8111 8.39207 11.2 8.39474C12.0487 8.39474 12.8626 8.06203 13.4627 7.46981C14.0629 6.87759 14.4 6.07437 14.4 5.23684C14.4 4.39932 14.0629 3.59609 13.4627 3.00387C12.8626 2.41165 12.0487 2.07895 11.2 2.07895Z" fill="#BBB5C6"/>
<path d="M12 9.18421H10.9784C11.6412 10.1075 11.9981 11.2106 12 12.3421V14.7105C11.9974 14.9801 11.9476 15.2472 11.8528 15.5H15.2C15.4122 15.5 15.6157 15.4168 15.7657 15.2688C15.9157 15.1207 16 14.9199 16 14.7105V13.1316C15.9987 12.0851 15.5769 11.0818 14.827 10.3418C14.0772 9.60175 13.0605 9.18546 12 9.18421Z" fill="#BBB5C6"/>
</g>
</g>
<defs>
<clipPath id="clip0_569_8848">
<rect width="16" height="15" fill="white" transform="translate(0 0.5)"/>
</clipPath>
</defs>
</svg>
