<svg width="16" height="16" viewBox="0 0 16 16" fill="none" xmlns="http://www.w3.org/2000/svg">
<g id="window" clip-path="url(#clip0_569_8887)">
<path id="Vector" d="M14.4 0.666992H1.6C0.7176 0.666992 0 1.39788 0 2.29662V13.704C0 14.6028 0.7176 15.3337 1.6 15.3337H14.4C15.2824 15.3337 16 14.6028 16 13.704V2.29662C16 1.39788 15.2824 0.666992 14.4 0.666992ZM8.4 3.11144C8.8416 3.11144 9.2 3.47647 9.2 3.92625C9.2 4.37603 8.8416 4.74107 8.4 4.74107C7.9584 4.74107 7.6 4.37603 7.6 3.92625C7.6 3.47647 7.9584 3.11144 8.4 3.11144ZM6 3.11144C6.4416 3.11144 6.8 3.47647 6.8 3.92625C6.8 4.37603 6.4416 4.74107 6 4.74107C5.5584 4.74107 5.2 4.37603 5.2 3.92625C5.2 3.47647 5.5584 3.11144 6 3.11144ZM3.6 3.11144C4.0416 3.11144 4.4 3.47647 4.4 3.92625C4.4 4.37603 4.0416 4.74107 3.6 4.74107C3.1584 4.74107 2.8 4.37603 2.8 3.92625C2.8 3.47647 3.1584 3.11144 3.6 3.11144ZM1.6 13.704V7.18551H14.4008L14.4016 13.704H1.6Z" fill="#BBB5C6"/>
</g>
<defs>
<clipPath id="clip0_569_8887">
<rect width="16" height="16" fill="white"/>
</clipPath>
</defs>
</svg>
