<svg width="20" height="20" viewBox="0 0 20 20" fill="none" xmlns="http://www.w3.org/2000/svg">
<g id="bars-outline" clip-path="url(#clip0_2446_222227)">
<g id="Vector">
<path d="M18.8235 3.45242H1.17647C0.864451 3.45242 0.565212 3.31445 0.344581 3.06887C0.123949 2.82329 0 2.49021 0 2.1429C0 1.79559 0.123949 1.46251 0.344581 1.21692C0.565212 0.971342 0.864451 0.833374 1.17647 0.833374H18.8235C19.1355 0.833374 19.4348 0.971342 19.6554 1.21692C19.8761 1.46251 20 1.79559 20 2.1429C20 2.49021 19.8761 2.82329 19.6554 3.06887C19.4348 3.31445 19.1355 3.45242 18.8235 3.45242Z" fill="#4D474D"/>
<path d="M18.8235 11.3096H1.17647C0.864451 11.3096 0.565212 11.1716 0.344581 10.926C0.123949 10.6804 0 10.3473 0 10C0 9.65273 0.123949 9.31965 0.344581 9.07407C0.565212 8.82848 0.864451 8.69052 1.17647 8.69052H18.8235C19.1355 8.69052 19.4348 8.82848 19.6554 9.07407C19.8761 9.31965 20 9.65273 20 10C20 10.3473 19.8761 10.6804 19.6554 10.926C19.4348 11.1716 19.1355 11.3096 18.8235 11.3096Z" fill="#4D474D"/>
<path d="M18.8235 19.1667H1.17647C0.864451 19.1667 0.565212 19.0287 0.344581 18.7832C0.123949 18.5376 0 18.2045 0 17.8572C0 17.5099 0.123949 17.1768 0.344581 16.9312C0.565212 16.6856 0.864451 16.5477 1.17647 16.5477H18.8235C19.1355 16.5477 19.4348 16.6856 19.6554 16.9312C19.8761 17.1768 20 17.5099 20 17.8572C20 18.2045 19.8761 18.5376 19.6554 18.7832C19.4348 19.0287 19.1355 19.1667 18.8235 19.1667Z" fill="#4D474D"/>
</g>
</g>
<defs>
<clipPath id="clip0_2446_222227">
<rect width="20" height="20" fill="white"/>
</clipPath>
</defs>
</svg>
