<svg width="19" height="18" viewBox="0 0 19 18" fill="none" xmlns="http://www.w3.org/2000/svg">
<path fill-rule="evenodd" clip-rule="evenodd" d="M9.16364 0C6.98744 0.0011291 4.8826 0.771896 3.22548 2.17448C1.56837 3.57706 0.467042 5.52 0.118427 7.65587C-0.230189 9.79175 0.196637 11.9813 1.32259 13.833C2.44855 15.6846 4.20021 17.0777 6.26435 17.7631C6.71974 17.8476 6.89126 17.5654 6.89126 17.3254C6.89126 17.0854 6.88215 16.3896 6.87912 15.6289C4.32897 16.1798 3.7901 14.5528 3.7901 14.5528C3.37418 13.4963 2.77307 13.2186 2.77307 13.2186C1.94124 12.6541 2.83531 12.6646 2.83531 12.6646C3.75671 12.7295 4.24093 13.6049 4.24093 13.6049C5.05759 14.998 6.38579 14.5951 6.90796 14.3596C6.98993 13.7695 7.22825 13.368 7.49086 13.1401C5.45377 12.9107 3.31346 12.1288 3.31346 8.63629C3.30084 7.73051 3.63887 6.85458 4.25763 6.18969C4.16352 5.96028 3.8493 5.03356 4.34718 3.77479C4.34718 3.77479 5.11679 3.53028 6.8685 4.70906C8.37101 4.30051 9.95626 4.30051 11.4588 4.70906C13.209 3.53028 13.977 3.77479 13.977 3.77479C14.4764 5.03054 14.1622 5.95726 14.0681 6.18969C14.6888 6.85468 15.0276 7.73215 15.0138 8.63931C15.0138 12.1394 12.8689 12.9107 10.8288 13.1356C11.1567 13.4193 11.4497 13.9732 11.4497 14.8245C11.4497 16.044 11.439 17.0251 11.439 17.3254C11.439 17.5684 11.6045 17.8522 12.069 17.7631C14.1334 17.0776 15.8852 15.6843 17.0111 13.8323C18.1371 11.9803 18.5637 9.79046 18.2147 7.65439C17.8656 5.51831 16.7638 3.57535 15.1061 2.17301C13.4485 0.770672 11.3431 0.000413422 9.16666 0H9.16364Z" fill="#443A5B"/>
<path d="M3.46808 13.0873C3.44834 13.1325 3.37548 13.1461 3.31628 13.1144C3.25708 13.0827 3.21306 13.0239 3.23432 12.9771C3.25557 12.9303 3.32691 12.9182 3.38611 12.9499C3.44531 12.9816 3.49084 13.042 3.46808 13.0873Z" fill="#443A5B"/>
<path d="M3.83999 13.4993C3.80855 13.515 3.77259 13.5194 3.73825 13.5117C3.70391 13.504 3.67334 13.4847 3.65176 13.457C3.59256 13.3936 3.58041 13.3061 3.62595 13.2669C3.67149 13.2276 3.75346 13.2457 3.81266 13.3091C3.87186 13.3725 3.88552 13.4601 3.83999 13.4993Z" fill="#443A5B"/>
<path d="M4.20128 14.023C4.14512 14.0623 4.04948 14.023 3.99635 13.9445C3.98166 13.9305 3.96998 13.9136 3.962 13.8949C3.95402 13.8762 3.9499 13.8562 3.9499 13.8359C3.9499 13.8156 3.95402 13.7955 3.962 13.7768C3.96998 13.7582 3.98166 13.7413 3.99635 13.7272C4.05252 13.6895 4.14815 13.7272 4.20128 13.8042C4.25441 13.8812 4.25593 13.9838 4.20128 14.023Z" fill="#443A5B"/>
<path d="M4.69156 14.5301C4.64147 14.586 4.53977 14.5709 4.45628 14.4954C4.3728 14.42 4.35306 14.3173 4.40315 14.263C4.45324 14.2087 4.55494 14.2238 4.64147 14.2977C4.72799 14.3717 4.74469 14.4758 4.69156 14.5301Z" fill="#443A5B"/>
<path d="M5.37917 14.826C5.3564 14.8969 5.25318 14.9286 5.14996 14.8984C5.04674 14.8682 4.97843 14.7837 4.99816 14.7113C5.0179 14.6388 5.12264 14.6056 5.22738 14.6388C5.33211 14.672 5.3989 14.752 5.37917 14.826Z" fill="#443A5B"/>
<path d="M6.12907 14.8773C6.12907 14.9512 6.04406 15.0146 5.93477 15.0161C5.82548 15.0177 5.73592 14.9573 5.73592 14.8833C5.73592 14.8094 5.82092 14.746 5.93021 14.7445C6.03951 14.743 6.12907 14.8018 6.12907 14.8773Z" fill="#443A5B"/>
<path d="M6.82732 14.7611C6.84099 14.835 6.76509 14.912 6.6558 14.9301C6.5465 14.9482 6.45087 14.9045 6.43721 14.832C6.42355 14.7596 6.50248 14.6811 6.60874 14.6615C6.715 14.6418 6.81366 14.6871 6.82732 14.7611Z" fill="#443A5B"/>
</svg>
