<svg width="19" height="19" viewBox="0 0 19 19" fill="none" xmlns="http://www.w3.org/2000/svg">
<path d="M18.3333 9.56675C18.3333 8.93107 18.2818 8.29196 18.1718 7.66659H9.35135V11.2676H14.4024C14.1928 12.429 13.5193 13.4564 12.5332 14.1093V16.4458H15.5467C17.3162 14.8171 18.3333 12.4118 18.3333 9.56675Z" fill="#4285F4"/>
<path d="M9.35134 18.7033C11.8734 18.7033 14.0004 17.8752 15.5501 16.4458L12.5366 14.1093C11.6982 14.6797 10.6158 15.0027 9.35478 15.0027C6.91515 15.0027 4.84661 13.3568 4.10442 11.1439H0.994746V13.5526C2.58222 16.7104 5.8156 18.7033 9.35134 18.7033Z" fill="#34A853"/>
<path d="M4.10099 11.1439C3.70927 9.98251 3.70927 8.7249 4.10099 7.5635V5.15479H0.994756C-0.331579 7.79715 -0.331588 10.9103 0.994746 13.5526L4.10099 11.1439Z" fill="#FBBC04"/>
<path d="M9.35134 3.70131C10.6845 3.68069 11.9731 4.18236 12.9386 5.10324L15.6085 2.43339C13.9179 0.845911 11.6741 -0.0268586 9.35134 0.000630176C5.81559 0.000630176 2.58223 1.99358 0.994756 5.15479L4.10099 7.5635C4.83975 5.34721 6.91171 3.70131 9.35134 3.70131Z" fill="#EA4335"/>
</svg>
