<svg width="742" height="148" viewBox="0 0 742 148" fill="none" xmlns="http://www.w3.org/2000/svg">
<path d="M55.7665 0.841669C53.6493 0.841669 51.9226 2.55165 51.9226 4.6605C51.9226 6.76935 51.9226 41.9741 51.9226 41.9741C51.9226 44.0776 53.6435 45.6982 55.7665 45.6982L74.0043 45.793C81.5393 45.793 88.7162 48.7164 94.2155 54.0184C99.7473 59.3583 102.836 66.4078 102.923 73.8781C103.01 81.5318 100.073 88.7377 94.6607 94.1746C89.2482 99.6115 82.0279 102.605 74.3301 102.605H74.0043C66.4858 102.519 59.3901 99.4498 54.0158 93.9535C48.6795 88.4952 45.6522 81.3591 45.6522 73.8727V55.5395C45.6522 53.436 44.0161 51.9281 41.8935 51.9281H4.34839C2.23122 51.9281 0.504883 53.4306 0.504883 55.5395V92.8531C0.504883 94.957 2.22574 96.7846 4.34839 96.7846H33.9838C37.9685 96.7846 40.5362 96.726 42.6534 97.0118C45.4654 97.3896 47.3494 98.1877 48.7718 99.5954C50.1942 101.003 50.9921 102.88 51.3719 105.674C51.6596 107.783 51.9226 110.329 51.9226 114.293V143.732C51.9226 145.836 53.4348 147.871 55.5577 147.871H74.3355C82.7662 147.871 91.045 146.143 98.9439 143.371C128.384 133.031 148.166 105.232 148.166 74.1965C148.166 43.1607 128.384 15.3615 98.9439 5.02182C91.045 2.24936 82.7662 0.841669 74.3355 0.841669H55.7719H55.7665Z" fill="#E6F59F"/>
<path d="M658.436 53.314H658.235L653.607 112.202H640.929L645.556 39.3669H664.774L691.353 95.6706L718.334 39.3669H737.149L741.777 112.202H729.102L724.474 53.314H724.273L697.09 112.202H685.719L658.436 53.314Z" fill="white"/>
<path d="M618.454 80.9422C618.454 86.8198 617.548 91.8625 615.738 96.0702C613.927 100.211 611.344 103.618 607.992 106.289C604.636 108.961 600.544 110.931 595.715 112.2C590.955 113.402 585.587 114.003 579.616 114.003C573.649 114.003 568.249 113.402 563.417 112.2C558.656 110.931 554.596 108.961 551.244 106.289C547.889 103.618 545.306 100.211 543.495 96.0702C541.684 91.8625 540.779 86.8198 540.779 80.9422V39.3651H555.067V79.9406C555.067 82.9459 555.401 85.7845 556.073 88.4561C556.745 91.0611 557.984 93.3653 559.795 95.369C561.606 97.3727 564.088 98.9424 567.243 100.078C570.462 101.213 574.586 101.781 579.616 101.781C584.65 101.781 588.738 101.213 591.893 100.078C595.112 98.9424 597.627 97.3727 599.437 95.369C601.248 93.3653 602.491 91.0611 603.163 88.4561C603.831 85.7845 604.169 82.9459 604.169 79.9406V39.3651H618.454V80.9422Z" fill="white"/>
<path d="M471.618 51.5897H438.917V39.3669H518.603V51.5897H485.902V112.202H471.618V51.5897Z" fill="white"/>
<path d="M404.645 83.2482L389.354 50.7884L374.06 83.2482H404.645ZM381.202 39.3669H397.503L433.02 112.202H417.927L410.282 95.471H368.121L360.375 112.202H345.182L381.202 39.3669Z" fill="white"/>
<path d="M276.737 99.9795C282.841 99.9795 288.006 99.512 292.232 98.5769C296.524 97.6417 300.011 96.1722 302.695 94.1685C305.447 92.1648 307.423 89.6267 308.634 86.5544C309.906 83.4822 310.545 79.8086 310.545 75.534C310.545 71.0591 309.906 67.319 308.634 64.3133C307.358 61.241 305.346 58.7698 302.594 56.8996C299.911 55.0293 296.424 53.6935 292.131 52.8922C287.838 52.024 282.707 51.5897 276.737 51.5897H262.248V99.9795H276.737ZM247.96 39.3669H283.176C288.945 39.3669 294.345 40.0348 299.375 41.3706C304.473 42.6398 308.9 44.7104 312.658 47.5823C316.412 50.3873 319.365 54.0942 321.51 58.7029C323.723 63.2447 324.83 68.7882 324.83 75.3337C324.83 81.5451 323.824 86.9551 321.812 91.5638C319.8 96.1722 316.983 100.013 313.362 103.085C309.74 106.158 305.411 108.462 300.381 109.998C295.351 111.467 289.817 112.202 283.78 112.202H247.96V39.3669Z" fill="white"/>
</svg>
